<svg id="Layer_1" data-name="Layer 1" xmlns="http://www.w3.org/2000/svg" width="119.22" height="146.52" viewBox="0 0 119.22 146.52">
  <title>Symbol</title>
  <style type="text/css">
	.color {
    fill:#7d6d3b;
    transform: rotate(45deg) translate(20px, -60px);
  }
</style>
  <path class='color' d="M113.98,31.98c-.64-2.5463-2.2373-3.61-4.7656-3.8679-1.1474-.1169-2.0886-.8383-3.2768-.3386a2.4518,2.4518,0,0,0-1.1521,1.0217c-.2036.344-.6117,1.3469-.4054,1.7448a2.5321,2.5321,0,0,0,1.531.7723c.5535.0125,1.2805-.155,1.0108.731-.3442,1.1308-2.1574,1.2949-3.0818,1.0766-2.4245-.5726-4.022-2.5237-6.72-1.86-.0988-.5868.314-.9952-.3708-1.1835a2.3158,2.3158,0,0,0-.8672.0428,13.9081,13.9081,0,0,0-2.6606.7152,13.6158,13.6158,0,0,0-2.1961,1.006c-.2452.14-.327.5147-.6853.26-.4036-.2874.0722-1.3975-.5605-1.6541-.3431-.1391-1.7272.5756-2.1455.7278a13.1357,13.1357,0,0,0-1.8857.8364,15.4,15.4,0,0,0-3.0911,2.2657,15.8051,15.8051,0,0,0-2.5039,3.0257,15.074,15.074,0,0,0-.8882,1.6051C79,39.4645,78.8156,40.5809,78.22,40.68c0-.87.2352-1.9944-.3538-2.7085a3.6719,3.6719,0,0,0-1.9551-1.1183,3.0968,3.0968,0,0,0-2.0222.1054c-.3049.1457-.4645.4571-.7251.6078-.448.2592-.7207-.05-1.1838-.3065-1.22-.6763-2.5969-1.9283-4.0817-1.6106-.8244.1764-1.4663.8106-2.3205.7424-.8331-.0665-1.6531-.4535-1.4542-1.39.3477-1.638,1.8276-3.0047,3.0776-4.0044,1.27-1.0158,2.8562-2.1707,4.5644-1.9829.1941.0213.3849.062.577.0956.4857.085.448.0344.6849.4088.2286.3613.2907.8044.5556,1.1652a1.9625,1.9625,0,0,0,1.7034.8849A4.0187,4.0187,0,0,0,78.5,28.68c.1081-.5344-.0328-1.5992.3852-1.8006a7.4562,7.4562,0,0,1,1.9889-.0885,5.2674,5.2674,0,0,0,1.7943-.2267c.5764-.3273-.023-.73-.1284-1.1842-.2875-1.2377,1.6749-1.01,2.3633-.9941.5787.0132,1.138.2,1.1855-.4948.0326-.4765-.4069-.9551-.4288-1.4511a15.9163,15.9163,0,0,1,3.5912.1232,21.6116,21.6116,0,0,1,2.7385.8664,13.7679,13.7679,0,0,1,2.4866,1.1718,7.3523,7.3523,0,0,1,.7857.62c.2629.2206.5129.76.7911.1258.2085-.4755-.2965-.7369-.5671-.9851a7.3472,7.3472,0,0,1-.9839-1.2475,18.3824,18.3824,0,0,0-2.2549-2.6095A27.4787,27.4787,0,0,0,89.47,18.0468a14.651,14.651,0,0,0-1.59-1.0483c-.2776-.1566-.5609-.3033-.85-.4365q-.2905-.1342-.5887-.25-.4663-.0036-.2431-.3878c-.0026-.4978.6062-.9673.3987-1.5076-.188-.49-1.2147-.35-1.7057-.35a11.46,11.46,0,0,0-1.9669.1575c-.3951.0687-1.8574.7065-2.0641.3562a8.8539,8.8539,0,0,1,.37-1.4692,2.5487,2.5487,0,0,0-.0147-.8091c-.052-.26-.34-.61-.3549-.8418-.0329-.5038.4339-1.0436.48-1.56a4.65,4.65,0,0,0-.2254-2.08c-.3273-.7993-1.05-1.2023-1.6281-1.7919-.75-.7645-.4955-1.9324-1.3866-2.5482a3.7308,3.7308,0,0,0-1.9283-.598,3.5432,3.5432,0,0,0-.9269.0916c-.2277.0535-.6533.3309-.8647.3264-.2144-.0045-.6069-.3028-.8478-.3555a2.3223,2.3223,0,0,0-.8134-.0355,2.5433,2.5433,0,0,0-1.5588.8843c-.4375.5085-.6723.9544-.41,1.5435.1954.4388.6933.94.3348,1.4155-.5.6634-2.1955.3084-2.9363.5251a12.8931,12.8931,0,0,0-3.4939,1.3911A3.503,3.503,0,0,0,63.46,10.02c-.2884.513-.8285.893-.96,1.5-.5649-.2042-.828-.7994-1.445-.9978a5.077,5.077,0,0,0-2.0828-.145c-.3981.0461-.6366.0162-.7322.4229-.1011.43.263.6794.57.975a1.7025,1.7025,0,0,1,.6787,1.1673c.065.46.135,2.7848-.3991,2.9561-.6327.2028-1.9872-1.68-2.3359-2.065-1.8562-2.0509-4.6471-2.7616-6.7945-4.4261a4.2747,4.2747,0,0,1-1.69-2.8825c-.2349-1.0224-.7339-1.6056-1.75-.9032a6.1657,6.1657,0,0,0-1.9756,2.7947c-.0938.2422-.1954,1.2553-.4043,1.3639a4.9773,4.9773,0,0,1-1.249-.3445c-.4265-.1156-.8538-.2293-1.2866-.3192-.9022-.1873-4.2759-.6919-4.4041.5609-.0573.56.8009,1.738.2888,1.9583a3.5041,3.5041,0,0,1-1.1812-.0458c-.5466-.0236-1.0936-.05-1.6409-.0442a9.1,9.1,0,0,0-2.3817.2967,6.4111,6.4111,0,0,0-1.2426.4931c-.5374.2815-.4409.337-.1356.7835.5372.7855.5.86-.3571,1.346a8.145,8.145,0,0,0-2.1135,1.7094A12.0659,12.0659,0,0,0,25.93,20.2522c-.1471.3937-.6845,1.5615-.27,1.9478.2872.2679.4688-.0661.7607-.276.2945-.2118.6022-.4057.9154-.5884a17.8168,17.8168,0,0,1,5.037-1.97c.2569-.0576,1.0927-.3525,1.3269-.2251.2788.1517-.0022.98-.0788,1.24-.1264.4277-.3409.7077-.17,1.1476.2019.5192.4711.3728,1.0318.3836a24.5481,24.5481,0,0,0,2.8215-.0281,3.7228,3.7228,0,0,0,1.2133-.2868c.3956-.1713.5524-.4833.783-.0017.2725.5692-.2415.7318.3588,1.0948a6.2988,6.2988,0,0,0,1.4944.4956A13.7159,13.7159,0,0,0,44.38,23.7a9.53,9.53,0,0,0,.3991,4.8336c.4014.933.7009.5192,1.3115-.0141.4285-.3743.8475-.7623,1.2986-1.11a5.1686,5.1686,0,0,1,2.7-1.1274,8.4913,8.4913,0,0,1,2.03.09c.2484.0361.7829.0167.9012.2677.1228.26-.4095.986-.544,1.1979a11.2421,11.2421,0,0,0-1.8937,4.27,15.9921,15.9921,0,0,0-.2172,2.5251A4.7778,4.7778,0,0,1,50.38,35.88a2.8764,2.8764,0,0,1-.3466.46c-.26.242-.1878.2068-.6059.26a6.0392,6.0392,0,0,0-.9318.0546c-.2811.08-.5223.3195-.8217.3537-.6189.0707-1.209-.3832-1.7675-.5791a1.934,1.934,0,0,0-1.6391.0213c-.5291.2738-.5378.61-.8274-.01-.1957-.419-.2483-.9234-.4-1.36a5.252,5.252,0,0,0-.5647-1.0155c-.2607-.4418-.1708-.6092-.7176-.47-.1892.0481-.33.2352-.5034.2836-.47.1311-.3655.0266-.5266-.2935a8.7166,8.7166,0,0,1-.2879-1.19,5.2452,5.2452,0,0,0-1.2087-2.1328c-.3167-.3187-.4864-.4864-.913-.438A3.5176,3.5176,0,0,0,37.06,30.48c-.6377-1.084-.3869-2.863-.2567-4.0436a7.3466,7.3466,0,0,1,.3525-1.8806c.2892-.7237.7442-.9838.7442-1.8157a4.8709,4.8709,0,0,0-2.1673,1.5566,17.8341,17.8341,0,0,0-2.0988,2.4558c-.3009.4357-.2825.7349-.8138.49-.6088-.2808-.9732-.8807-1.6517-1.0607a3.3183,3.3183,0,0,0-1.75.1923c-.1649.0463-.6571.2775-.8181.2061-.214-.095-.5068-.8785-.63-1.092a9.4568,9.4568,0,0,0-2.9555-2.9861A5.5728,5.5728,0,0,0,23.38,21.555c-.4732-.109-.9808-.1509-1.4833-.2987a15.1975,15.1975,0,0,1-2.986-1.0921,4.3232,4.3232,0,0,1-1.2093-.9081c-.3182-.3622-.4073-.8874-.8461-1.0145a2.1278,2.1278,0,0,0-2.1327,1.2222c-.59,1.2145.2212,2.1969.5676,3.3237a3.3632,3.3632,0,0,1-.08,1.7049,6.8706,6.8706,0,0,0,.2689,2c.0992,1.0349-.6749,1.93-.724,2.96A4.02,4.02,0,0,0,15.364,31.32a3.5019,3.5019,0,0,0,1.2144,1.3983c.104.0854.1069.2715.2016.3417a3.0479,3.0479,0,0,1,.48,0c.1771.2914-.0946.3642-.2282.427-.4607.2166-1.1089.205-1.607.4141a5.59,5.59,0,0,0-2.5788,1.984c-.1969.3146-.5343.9083-.0261,1.1349.3876.1729,1.3508-.3675,1.8179-.353a8.315,8.315,0,0,1,3.2187.9369c.2285.1162.8452.39.8372.7172s-1.0087.372-1.3641.4769a13.1245,13.1245,0,0,0-3.5448,1.681c-.68.4553-1.8082,1.2258-2.0449,2.061a5.8867,5.8867,0,0,0,2.0138-.2436,6.0541,6.0541,0,0,1,1.6408-.002,12.2213,12.2213,0,0,1,3.33.8127,4.2517,4.2517,0,0,1,1.1727.6527,1.1632,1.1632,0,0,1,.3227.3414c.2092.48-.0943.5567-.4426.8541a5.7818,5.7818,0,0,0-1.2182,1.35c-.3938.6451-.5877,1.0669-.0215,1.62.96.9375,2.095,1.0613,3.27,1.5009.6327.2366.1316.6051-.1684,1.0793-.299.4725-.4314.7973-.1243,1.2791a6.1535,6.1535,0,0,0,2.4339,1.7192,9.6264,9.6264,0,0,0,1.3567.5675c.3932.1245.9891.1223.7518.6877-.3481.8295-1.385.1091-1.922-.0867a5.567,5.567,0,0,0-2.42-.3157,9.9754,9.9754,0,0,0-2.1141.4942c-.4345.1376-.8634.1291-.9035.5907-.028.3218.2415.6226.2415.9588a8.6078,8.6078,0,0,0-3.5441.1418,5.1469,5.1469,0,0,0-1.38.7129c-.6595.4683-.7866.7966-.2733,1.47.1932.2533.9151.7563.8264,1.0392-.0611.1948-.7179.4314-.8868.5181-.6979.3579-1.4435.6452-2.1221,1.0385a11.0364,11.0364,0,0,0-4.42,5.1238c-.0759.1934-.4892,1.1989-.29,1.3863.2018.19,1.1948-.4016,1.3977-.5066a7.8973,7.8973,0,0,1,3.2318-1.2121c.4718-.035,1.85-.3954,2.18-.1714.5553.3764-.3827,1.6962-.0329,2.2876.1832.31,1.6292.29,2.0981.3469A16.754,16.754,0,0,0,17.86,68.52c.0833.5-.4273,1.5242-.0691,1.891.2568.263,1.061.1156,1.3783.0747a2.0349,2.0349,0,0,1,.4974-.09c.2057.0649.4819.6266.6294.8479a2.1672,2.1672,0,0,0,.729.756c.3907.2507.9261.3266,1.1156.7593a6.8588,6.8588,0,0,1,.2766,1.5589,2.8437,2.8437,0,0,1-.2016,1.1295c-.176.6257.1139,1.56-.2176,2.0059-.2754.37-.68.5633-.9114,1.0048a2.8744,2.8744,0,0,0,1.7808,3.9939c.4556.1449,1.0635.063,1.366.3266.357.311.4084,1.0033.9465,1.1611.3568.1046.5216-.1663.7632.2081a3.8877,3.8877,0,0,1,.251,1.1715c.0352.1761.2789.8644.1858,1.02-.11.1841-.73.1514-.9113.1738a4.6322,4.6322,0,0,0-1.27.3319c-.6168.253-1.9517.45-1.848,1.205.0863.6287.81.9871.9094,1.6493a12.1277,12.1277,0,0,0-4.54,1.5192,7.9247,7.9247,0,0,0-.98.6408c-.0422.1907.28.4627.4077.5733.3321.2884,1.2592.5486,1.3241,1.07.0409.3285-.0753.248-.3322.43-.2165.1533-.4576.2777-.6768.4289a13.6746,13.6746,0,0,0-1.525,1.2355,17.15,17.15,0,0,0-2.6662,3.1478,12.47,12.47,0,0,0-1.7864,3.9867,8.2135,8.2135,0,0,0-.2245,1.966c.0064.4652-.0627,1.8373.5546,1.4.51-.3609.7-1.2663.9822-1.7957a4.7384,4.7384,0,0,1,1.5712-1.5849,18.9384,18.9384,0,0,1,4.4533-2.2071c.4005-.1485,2.3581-1.1364,2.718-.7912.1683.1614-.0376,1-.07,1.2372-.0585.4272-.3488,1.2991-.17,1.7028.5409,1.2217,4.2457-.4761,5.16-.66a8.1175,8.1175,0,0,0-.0167,2.15c.13.63.3711.8189,1.0178.6967.5132-.097.9678-.377,1.4914-.45a2.7245,2.7245,0,0,0,.837-.1629A21.478,21.478,0,0,0,35.32,100.931a9.6047,9.6047,0,0,1,2.397-1.3378c.8422-.3513,1.9418.59,2.95.1542A2.06,2.06,0,0,0,41.31,99.28c.2819-.2875.2374-.4351.6293-.37.9238.1547.5185.8588.4659,1.3969a2.68,2.68,0,0,0,2.0918,2.5,4.2457,4.2457,0,0,0,1.7928-.02c.5362-.1118.9886-.6053,1.4656-.5488,1.0379.1231,1.536,1.1488,2.7121.7295.3751-.1337.9622-.7428,1.3676-.6983.3793.0416.8875.8512,1.2751,1.1115a2.6193,2.6193,0,0,0,1.6194.4644c.5078-.0269.5665-.1339.9214.2323.2345.242.3222.6182.5344.8815.3943.4893.9328.5788,1.456.8686.821.4547.5166.8833.6581,1.6921.1451.8293.4569,1.5962.5373,2.4591a32.383,32.383,0,0,1-.2187,6.6938,37.0322,37.0322,0,0,1-1.077,5.6858c-.3085,1.11-.5962,2.2259-.9613,3.319-.1924.576-.4982,1.9947-1.16,2.2423a9.1333,9.1333,0,0,0-1.1638-4.8294c-.6846-1.1131-2.02-1.93-2.1751-3.2889-.1055-.9265.6912-1.3643,1.2424-.5714.4542.6535.1721,1.6765,1.0166,2.09,1.4772.7227,2.0925-1.1607,2.0511-2.2145a3.8212,3.8212,0,0,0-.6587-1.82,2.801,2.801,0,0,0-.772-.6893c-.3054-.2306-.1642.0478-.3861-.3473a7.1335,7.1335,0,0,1-.2516-.7573,3.5042,3.5042,0,0,0-3.0566-2.3549c-.4445-.018-2.0457.5165-2.2061.3236-.1189-.143.0433-.8976.029-1.1256a4.0144,4.0144,0,0,0-.2115-1.1263,2.5863,2.5863,0,0,0-1.0536-1.3258c-.5393-.3408-1.52-.3109-1.9183-.6546-.2914-.2516-.384-.6226-.75-.8649a3.2433,3.2433,0,0,0-1.14-.4487,3.3766,3.3766,0,0,0-2.4488.4259c-1.547.9343-1.7913,2.6676-1.7466,4.34a8.58,8.58,0,0,0-5.9356.0935c-.3087.1421-.9485.4092-1.0245.7465-.1257.5579.6083.4673,1.02.54.5132.0905,2.7641.5882,2.8077,1.1852.0445.61-1.2149.4532-1.5547.5269a15.2554,15.2554,0,0,0-1.9435.6224c-1.2241.4473-2.8109,1.1663-2.9694,2.6456a26.3907,26.3907,0,0,1,3.477.161,11.9366,11.9366,0,0,1,1.4841.2892c.5361.1419,1.13.1383.98.7238-.1609.6283-1.1756,1.0813-1.5158,1.64-.8081,1.3271,1.0069,1.2509,1.93,1.3212,1.0018.0764,2.0652.2115,3.0682.1864.7227-.018,1.9105-.5986,2.05.4577.05.3772-.1272.7732-.0217,1.15.1234.4408.5051.6752.827.9624.8994.8022.5492,1.85,1.1615,2.768,0-.0005,1.5733.8783,1.8291.99a2.6863,2.6863,0,0,0,2.7986-.1653c.7567-.4656,1.6753-1.1361,1.7088-2.1148a1.649,1.649,0,0,0-1.5622-1.6591c-.1941-.0184-.9036.2357-.9942.1894-.25-.1277-.2582-.8647-.2149-1.1021a1.6517,1.6517,0,0,1,1.4828-1.2053,3.0318,3.0318,0,0,1,3.406,1.6222,8.2528,8.2528,0,0,1,.4824,5.1173c-.4088,2.1043-1.8771,3.8076-3.2786,5.3588a32.8863,32.8863,0,0,1-5.8662,4.9661c-.3259.2227-2.842,1.3934-2.1316,1.803.2508.1446,1.21-.46,1.388-.567a13.0169,13.0169,0,0,0,1.5833-1.1968c.9216-.7636,1.8981-1.4441,2.8458-2.1732.5646-.4344,1.2866-.81,1.8028-1.283a15.3508,15.3508,0,0,0,1.2646-1.5771c1.525-1.8541,3.1261-3.7781,3.3173-6.2674.1348-1.7552-.0745-4.2531-1.4784-5.5118-1.2777-1.1456-3.93-1.8515-5.0651-.1627a2.2133,2.2133,0,0,0-.233,2.0663c.1909.46.4707.8629.9464.8181.3927-.037.8227-.5287,1.2481-.1654.6225.5317.0873,1.5306-.3949,1.8921a11.19,11.19,0,0,1-.9884.5658c-.4332.26-.5388.3881-1.0583.3442a3.4615,3.4615,0,0,1-1.996-.8627,2.2953,2.2953,0,0,1-.5155-.8091,3.1316,3.1316,0,0,1-.164-.6656,4.65,4.65,0,0,1-.0427-.5309q.1337-.3619-.2343-.3989c-.5615-.5619-1.1629-.7314-1.2519-1.6635a3.0472,3.0472,0,0,1,.7258-2.0742,4.2335,4.2335,0,0,1,2.1773-1.5075c.3748-.1023.7913-.0057.6228-.41-.1769-.4243-.5825-.2653-.9839-.2213a2.7624,2.7624,0,0,0-2.14,1.28,3.1311,3.1311,0,0,1-.8357.9217,4.5808,4.5808,0,0,1-1.2758.2c-.665.0841-5.3692.7385-5.2042-.5.0531-.3982.8848-.97,1.199-1.1918a5.8808,5.8808,0,0,1,1.6728-.7889,13.27,13.27,0,0,1,1.684-.371c.3508-.0595.7028-.1122,1.0541-.1684.5211-.0834.6151-.0374.87-.42a4.7308,4.7308,0,0,0-3.2374-.0187c-.5068.1668-.883.5069-1.4426.4387a12.2473,12.2473,0,0,1-1.9284-.6067,14.6032,14.6032,0,0,0-1.8958-.4682c-.2311-.0376-1.872.0159-1.9358-.0652-.4478-.5687,1.8957-1.4927,2.248-1.6039a16.2874,16.2874,0,0,1,6.4385-.65,19.7473,19.7473,0,0,1,2.3271.6527c.6581.1694,1.7439.1341.6124-.5589a6.5464,6.5464,0,0,0-3.0436-.5266,6.3256,6.3256,0,0,1-3.2147-1.1086,6.8237,6.8237,0,0,0-1.4226-.7567c-.4084-.14-1.3721-.0144-1.035-.5175.3683-.55,1.5379-.4557,2.091-.4542a9.222,9.222,0,0,1,4.8677,1.0987c.2444.148,1.1189.7109,1.4112.4655.4353-.3654-.6813-.786-.8681-.89a2.4058,2.4058,0,0,1-1.5413-2.4512c.2563-1.8613,3.3058-3.5829,4.7076-1.8728.17.2071.2557.55.4445.7307.3326.3176.5557.1552,1.0413.17a1.7022,1.7022,0,0,1,1.2938.5092,3.2541,3.2541,0,0,1,.7957,1.211c.1718.5312-.1134.7519-.1134,1.2135-.9729-.1362-2.0532-1.1342-3.0638-.663a1.8479,1.8479,0,0,0-.703,2.4244,4.0982,4.0982,0,0,0,2.1852,1.6537c.6013.2409,2.0707.8334,2.7216.5449.6951-.3081.1552-.7961-.28-.8552-.3325-.0452-1.5177.275-1.7-.1048-.2486-.517.7487-1.4422,1.0875-1.67a3.6075,3.6075,0,0,1,4.23.1544,2.9075,2.9075,0,0,1,.72.9822c.1656.3646.1188,1.176.3224,1.4336.2419.306.874.3885,1.1685.7491a2.5341,2.5341,0,0,1,.4882,1.3474c.0592.5207-.0643,1.4209-.7567,1.5636-.5466.1126-.8726-.5615-.9887-.9593-.175-.5993-.0257-.9277-.6626-1.195a2.483,2.483,0,0,0-.5834-.1574A1.1091,1.1091,0,0,0,51.64,118.5c-.8571.5665-.1248,2.8228.497,3.5671a16.06,16.06,0,0,1,1.771,2.236,7.0327,7.0327,0,0,1,.7788,3.2266,6.6277,6.6277,0,0,1-.1308,2.1646c-.0747.2414-.6875,1.2321.0241,1.2258.3645-.0033.9137-1.5157,1.0389-1.8035.3157-.7256.6664-1.4333,1.0011-2.15a16.6788,16.6788,0,0,0,1.824-4.59,17.0331,17.0331,0,0,1,.3671-2.326c.1524-.6024.2376-1.2355.34-1.8476a19.2964,19.2964,0,0,0,.497-4.8411c-.1082-1.0548-.1495-2.1048-.2254-3.173a8.2233,8.2233,0,0,0-.2277-1.9725,6.5778,6.5778,0,0,1-.2083-.9073c-.0818-.5043-.1853-.7685.1745-1.0652,1.8439-1.5205,1.6255,3.1363,1.619,3.8685-.0185,2.0714.2568,4.1489.0424,6.2111a39.6274,39.6274,0,0,1-1.7709,7.8527,18.7139,18.7139,0,0,1-1.487,3.4292c-.19.3465-1.0775,1.8938-.194,1.4574.51-.252.93-1.1343,1.187-1.6014,1.0639-1.9376,1.9923-4.0059,2.9639-5.9952a26.9357,26.9357,0,0,0,2.5481-6.9209,10.3619,10.3619,0,0,0-.01-3.065c-.0773-.7468.0255-1.479-.0948-2.2222-.0943-.583-.1732-1.167-.2565-1.7517a10.478,10.478,0,0,0-.3544-1.7617,3.5753,3.5753,0,0,0-.2517-.6225c-.0727-.132-.471-.4868-.4826-.602a.5505.5505,0,0,1,.66-.48c.3153.1.3271.567.4242.9273.1824.6768.3747,1.3511.54,2.0324a18.2615,18.2615,0,0,1,.5362,4.54c.7109-.178.6015-1.0351.6328-1.6254a17.8229,17.8229,0,0,1,.4836-2.5078c.1781-.8939.3193-1.795.4439-2.6978.0427-.31-.029-.8681.3-.969.3344-.1027.6683.3085.7324.5282.2282.7823-.328,2.2182-.5023,2.9829-.2223.9754-.5194,1.922-.7825,2.8846-.125.4574-.1291,1.112.4474.5194.3731-.3836.5081-1.3625.7526-1.8887a18.0563,18.0563,0,0,1,2.3261-3.7117,8.9652,8.9652,0,0,1,1.2249-1.3105c.6684-.55,1.2033-.1753,1.9762-.3381a4.0776,4.0776,0,0,0,2.7073-1.8429,3.4022,3.4022,0,0,0,.3143-.8675c.05-.2228-.019-.7775.1013-.947.1974-.2779.2185-.1183.4882.1885a6.82,6.82,0,0,0,.6479.7268,1.7293,1.7293,0,0,0,1.6314.399c.4918-.1241,1.3247-.6893,1.4239.2251.0557.5131-.2763.3618-.7163.4092-.35.0377-.6982.0914-1.044.1573a17.0079,17.0079,0,0,0-2.4331.6648,19.6962,19.6962,0,0,0-4.4762,2.2248,11.7293,11.7293,0,0,0-1.6118,1.2593c-.2513.2427-1.7947,1.8441-1.5279,2.1766.2217.2763,3.1087-2.5109,3.4812-2.7976,2.3973-1.8451,5.8349-2.7541,8.7635-3.2728a19.4164,19.4164,0,0,1,9.4644.6663,12.8767,12.8767,0,0,1,3.6936,1.6364c.7741.553,1.8187,1.7017,1.2972,2.7478-.4643-.21-.6792-.6739-1.08-.96a4.551,4.551,0,0,0-1.5615-.5328c-1.093-.2922-1.7887-1.26-2.8785-1.5072.0331,1.2316,1.6215,1.5391,2.2674,2.339a4.2308,4.2308,0,0,1,.6539,1.7971c.0651.3225.1139.6488.1481.9759.0479.4584.1747.7667-.2173.95-1.2132.5665-3.3378-.6577-4.3921-1.162-.1729-.0827-.7588-.2411-.86-.4-.1332-.2087-.0211-.8178-.0448-1.09a6.9553,6.9553,0,0,0-.4924-2.1839,4.1167,4.1167,0,0,0-.9842-1.4011c-.2618-.24-.5906-.547-.9536-.23-.2187.1913-.098.4109.0521.72.4814.9929,1.4073,1.6965,1.5686,2.8483a7.9457,7.9457,0,0,1-.2318,2.0215,2.2183,2.2183,0,0,1-.1541.9179c-.2836.45-.33.2549-.7224-.0748a14.16,14.16,0,0,0-4.3861-2.7942,13.813,13.813,0,0,0-9.8731.0656,7.6212,7.6212,0,0,0-2.0184.9,8.0512,8.0512,0,0,0-1.5016,1.68,18.8679,18.8679,0,0,0-2.0748,4.0409c-1.1348,2.8755-2.0307,5.8352-3.2066,8.6974a10.3812,10.3812,0,0,1-.9687,1.9286c-.131.1919-.58.5533-.6483.7535-.2419.7114.27.4622.5581.1948,1.3116-1.2164,2.51-2.56,3.9331-3.6517a21.8476,21.8476,0,0,1,5.28-2.4877,5.56,5.56,0,0,0,2.32-1.5186,2.0241,2.0241,0,0,0,.43-1.48,1.4148,1.4148,0,0,0-1.5535-.9141c-.2493.0562-.9266.7922-1.1865.6172-.1639-.11-.032-1.1612.0213-1.3187a1.357,1.357,0,0,1,.6134-.7513,2.1012,2.1012,0,0,1,1.2253-.27c.47.136.3853.6308.9066.63.6141-.0013,1.2873-.5685,1.9076-.6782a3.4141,3.4141,0,0,1,2.1539.3017,3.76,3.76,0,0,1,1.4878,1.2933.7455.7455,0,0,1,.093.6813c-.0277.0958-.2138.1461-.2246.1944-.0363.1625.0294.271.08.4872a1.0961,1.0961,0,0,1-.5055,1.3822,17.0865,17.0865,0,0,0-1.8987.5946c-.3385.1985-1.1663.8921-.6016,1.0844.57.1943,1.7992-.8215,2.3264-1.016a6.8175,6.8175,0,0,1,3.9215.1234A5.5575,5.5575,0,0,1,83.53,119.976c.3993.2875.7035.7224.3225,1.146-.1837.2042-.7662.3231-1.0239.4836-1.067.6644-1.8669,1.6958-3.0408,2.198a2.8588,2.8588,0,0,1-.8909.27c-.55.0324-.5661-.0387-.486-.6217a4.185,4.185,0,0,0,.1692-.9323,6.9463,6.9463,0,0,0-.4-1.7c-.0919-.2452-.2012-.6269-.575-.46-.2776.124-.1317.7082-.0646.989a2.896,2.896,0,0,1,.0837,2.1527,2.4383,2.4383,0,0,1-1.2894,1.0919c-.5834.24-1.4163.1-1.58.8043-.1288.5532.0346,1.0775-.2122,1.6456a2.8882,2.8882,0,0,1-.8889,1.1338,2.9476,2.9476,0,0,1-2.5406.5521,1.968,1.968,0,0,1-.9695-.6087c-.1338-.1584-.1931-.4375-.3282-.5706-.2705-.2665-.8182-.1439-1.2731-.1282-.5621.0194-.599-.0541-.896-.5143a3.1319,3.1319,0,0,1-.3806-.7269c-.1864-.5776.0213-2.1289.8559-1.51.1718.1273.2682.4851.4721.6465a1.5512,1.5512,0,0,0,.843.3289,1.5335,1.5335,0,0,0,1.5483-1.25,2.5639,2.5639,0,0,0-1.955-2.7489c-2.18-.2366-4.4194,1.8887-5.89,3.21-2.4391,2.192-4.1886,4.9321-6.5132,7.2372A12.5694,12.5694,0,0,1,54.7,133.92c-.5134.3244-1.32.3024-1.68.84.5283.2641.9246-.0932,1.4844-.219a2.8614,2.8614,0,0,1,1.4718.012,3.6046,3.6046,0,0,1,1.9752,2.0126,2.4544,2.4544,0,0,1-.7266,2.9249c-.6645.6412-2.0247,1.4216-2.8726.6719-.3716-.3285-.4539-.8951.0225-1.0741.44-.1654.9885.0785,1.4653-.152.5454-.2636.6111-.8529.558-1.4516-.0682-.77-.4418-1.0035-1.1533-1.2093-2.37-.6854-4.5771,2.3691-6.185,3.6468a41.9414,41.9414,0,0,1-3.8233,2.813,13.106,13.106,0,0,1-1.8211.8295c-.4247.1814-1.2834.9154-1.6753.9154.1867.83,1.408.003,1.7666-.2411a3.6252,3.6252,0,0,1,.7734-.4989c.2725-.097.5589-.0656.8257-.1824a7.8468,7.8468,0,0,0,1.0835-.7167c.63-.4209,1.2625-.8408,1.8759-1.2853a13.7271,13.7271,0,0,0,1.3235-1.2742,11.6622,11.6622,0,0,1,1.6912-1.0051,15.6339,15.6339,0,0,0,1.3947-1.2422c.5941-.5133,2.4613-1.8662,3.0655-.8142.3072.5349.1091,1.3577-.5175,1.395-.3059.0182-.6407-.3-.945-.27a1.5412,1.5412,0,0,0-.8175.855c-.2006.8584.8229,1.5463,1.4969,1.718a3.0559,3.0559,0,0,0,2.3772-.3564c2.0637-1.39,2.2142-5.0654-.14-6.1386-.3074-.14-.9771-.367-.9738-.683.0032-.31.9873-.9859,1.242-1.2975a40.1535,40.1535,0,0,1,2.818-3.2353c.8971-.8873,1.8371-1.7309,2.6685-2.6819a28.73,28.73,0,0,1,2.1021-2.3209,6.6782,6.6782,0,0,1,2.66-1.5642,4.04,4.04,0,0,1,1.7963-.24,1.4759,1.4759,0,0,1,.929,1.7661c-.112.46-.1778.5139-.6555.5737-.45.0563-.4177.0589-.6756-.2642-.3513-.44-.4822-.909-1.18-.77-.8622.1711-1.18,1.2751-1.2051,2.0315a2.0172,2.0172,0,0,0,1.5888,2.1793,4.26,4.26,0,0,1,1.478.527c.45.3326.7672.9472,1.3191,1.1339a4.9026,4.9026,0,0,0,2.1325-.33,2.9294,2.9294,0,0,0,1.6222-.8993c.2394-.2123.4823-.4272.747-.335.1309.0456.3522.3829.4862.48a3.3534,3.3534,0,0,0,1.63.5542,4.4411,4.4411,0,0,0,3.28-.7467c.3341-.3165.5764-1.0233,1.0029-1.2055.3652-.156.73.1232,1.1736.1279,1.8192.0195,3.2546-2.0747,4.3134-3.2889a6.3644,6.3644,0,0,1,1.732-1.6271,3.7286,3.7286,0,0,1,3.0052.0882,3.4812,3.4812,0,0,0,2.8649.1272,3.5375,3.5375,0,0,0,1.8892-2.7855c.2332-1.82-1.8961-.1988-2.7379-.1311a5.8674,5.8674,0,0,1-1.8818-.26c-.8511-.2174-.9459-.366-1.2731-1.1884a4.6753,4.6753,0,0,0-5.2141-2.9744c-.33.079-.6063.3326-.9313.4215-.4331.1184-.5706-.01-1.005-.185a2.99,2.99,0,0,0-2.0423-.03c-.5245.1464-1.0343.5412-1.5459.6531-.4133.09-.4715-.1066-.7119-.4928-.5562-.8933-1.0065-1.7109-2.0515-2.0778a5.6394,5.6394,0,0,0-2.2589-.3257c-.65.0474-1.23.4942-1.8574.5077-.5572.0119-.8745-.5078-1.441-.5451a1.8224,1.8224,0,0,0-1.1009.3288,2.5638,2.5638,0,0,0-1.0679,2.12A2.2659,2.2659,0,0,0,71.02,117.6c.0553-.2513.3364-1.263.7055-1.2919.21-.0164.3776.2829.452.4216.228.4248.1455.5324-.1372.8544-.7262.8271-2.3018,1.2655-3.2919,1.6616a13.3155,13.3155,0,0,0-3.31,1.7176c-.4693.3646-.8919.795-1.3785,1.1367a12.72,12.72,0,0,1-1.2.9,9.9107,9.9107,0,0,1,1.3058-3.3928c.2192-.4673.4671-.9207.6884-1.3863.4085-.86.2283-1.7891.5256-2.6746.2759-.8221.7618-1.62,1.1191-2.4124a19.0421,19.0421,0,0,1,1.1185-2.23,6.0715,6.0715,0,0,1,3.9247-3.0352,19.6072,19.6072,0,0,1,4.6733-.707,14.6632,14.6632,0,0,1,4.8192,1.2445,11.8346,11.8346,0,0,1,3.6963,2.3619c.1688.17.75,1.131.9292,1.1322.277.0018.7144-.8659.8025-1.0587.1369-.2995.187-1.27.3975-1.4614.27-.2453.8037.2978.9967.4579a3.7769,3.7769,0,0,0,1.3222.7486,12.2923,12.2923,0,0,0,2.9934.5583c.7193.0534.9043.09,1.0742-.691a3.37,3.37,0,0,0-.05-1.4822A9.5076,9.5076,0,0,1,92.8,106.74c2.3016.89,2.5485,3.2783,3.9407,5.0063a5.3943,5.3943,0,0,0,3.2548,1.7825,4.77,4.77,0,0,0,2.0446.1712c.73-.1459.9432.1113,1.62.324.9571.3008,2.4087-.41,3.3222-.7791a3.3583,3.3583,0,0,0,2.0843-2.48,5.22,5.22,0,0,0-.217-3.1589,3.1994,3.1994,0,0,0-.7485-1.1277c-.3709-.3442-.8649-.3152-1.22-.568-.4212-.3-.0806-1.1053-.3415-1.57a4.9552,4.9552,0,0,0-1.727-1.5066,3.3281,3.3281,0,0,0-3.1189.6759,2.597,2.597,0,0,0-.9141,1.0106,2.6409,2.6409,0,0,0,.24,1.8c.3226.4357,1.3786.3813,1.62.81.1716.3048-.1065.766-.38.94-1.09.6918-3.1813-.7569-4.0331-1.386-1.4642-1.0814-2.0231-2.8183-2.6177-4.4593-.7048-1.9452-1.6214-3.7619-3.7289-4.4358-.1922-.0615-.8727-.0907-1-.2285-.2034-.2194.0444-.9189.1156-1.1389.28-.8667.5276-1.1877-.32-1.7781a7.3129,7.3129,0,0,0-1.956-.85c-.2232-.0726-.848-.15-.9982-.3242-.263-.3043.0385-.2663.0385-.5889.2546.6267,1.5353.1,1.94-.0412.2252-.0784.6848-.3756.9219-.3524.2428.0238.5229.3453.7439.5055a17.0421,17.0421,0,0,0,2.5262,1.5175,3.6119,3.6119,0,0,0,.9525.3978c.71.1028.5948-.42.6418-1.0126.0328-.4142-.0394-.8409.342-.9963.2484-.1012.7614.0972,1.0028.1571.9055.2245,1.7785.57,2.69.7738a2.3046,2.3046,0,0,0,1.079.1309c.4838-.1991.2553-.9326.228-1.356-.04-.6267-.1477-.9478.5044-.83a2.9615,2.9615,0,0,1,1.0273.5979,18.0841,18.0841,0,0,1,3.8249,4.1072c.2972.4162.6468,1.4149,1.0281,1.6875.6708.48.3335-1.7435.2813-2.1922-.5-4.2974-2.4113-9.4076-6.18-11.8931-.53-.3493-1.1171-.3743-.9488-1.0884a10.0072,10.0072,0,0,1,.4762-1.121c.28-.7644.1921-1.0405-.4909-1.4577a7.1144,7.1144,0,0,0-1.97-.8262,6.8919,6.8919,0,0,0-.9861-.1734c-.5394-.0545-.5526.07-.7476-.3548-.0755-.1644-.0146-.454-.0666-.6394-.1009-.3594-.3756-.6478-.4778-1.0056-.1965-.6882.199-.9889.4912-1.5407A4.8433,4.8433,0,0,0,96.94,73.86c1.8369.3136,2.0239-3.2666,1.6113-4.3118a2.2728,2.2728,0,0,0-.7858-1.04c-.1659-.1167-.617-.193-.7318-.3247-.1687-.1936-.1236-.721-.2086-1.04a3.1854,3.1854,0,0,0-1.1666-1.6382c-.3927-.3483-.4493-.27-.253-.8849a5.268,5.268,0,0,0,.3345-1.08c.7129.1488,1.3292.589,2.0394.7592a8.4353,8.4353,0,0,0,2.6456.1335c.6327-.0522,1.8164.0645,1.9087-.6288a4.2881,4.2881,0,0,0-.4684-1.6675c-.1226-.34-.4849-.968-.3922-1.3416.15-.6043.9463-.4729,1.4212-.5a13.06,13.06,0,0,1,4.3387.05,10.7057,10.7057,0,0,1,1.9344.8976c.3848.19,1.533.8052,1.52.1428-.01-.5246-.8167-1.0008-1.179-1.2562a12.9643,12.9643,0,0,1-1.449-1.2333,17.9334,17.9334,0,0,0-7.1559-4.2384c-.4967-.1513-1.4672-.1748-1.66-.66-.1377-.3467.096-.9658.1612-1.3105.1559-.825.5129-2.1965-.4126-2.71-.7807-.4331-2.0558-.0555-2.8486.1423a18.1965,18.1965,0,0,0-3.023,1.0306c-.4625.2073-.6443.2445-1.0464-.14a2.8271,2.8271,0,0,0-1.4052-.8772A4.7,4.7,0,0,0,89.66,50.034c-.5481-.0106-.6344.0122-1.0222-.444-.17-.2-.8509-.7722-.6975-1.05.0937-.17.7566-.1864.9453-.2069a16.1382,16.1382,0,0,0,2.0934-.21,5.6044,5.6044,0,0,0,2.0551-1.1586c1.3422-1.0391,2.4989-2.33,3.9062-3.2845a7.5573,7.5573,0,0,1,2.3683-.9561c.2229-.0586,1.0627-.1312,1.2317-.3039.3406-.348-.132-.697-.28-.96-.6108-1.0853,1.17-1.3088,1.93-1.4009.4816-.0584,2.3938-.0232,2.3441-.7692-.0613-.9192-1.9319-1.2886-2.2544-2.15,2.6-.8565,5.1414.8458,7.69.0459a5.5626,5.5626,0,0,0,2.8912-2.2285C113.3937,34.1615,114.2313,32.98,113.98,31.98ZM47.02,115.86c-.9567-.1651-2.3687-1.5657-1.4-2.4807.4273-.4034.9412-.18,1.4724-.021a1.4032,1.4032,0,0,1,.4554.1637c.2738.1526.294.3225.6717.358C48.1308,114.6465,47.425,115.247,47.02,115.86Zm44.34,4.08a5.4576,5.4576,0,0,0,2.2385.34,4.912,4.912,0,0,0,1.0456-.1428c.2884-.0755.6872-.4.9506-.4322.979-.1181-.0342,1.5086-.4564,1.7987a3.4217,3.4217,0,0,1-2.589.5323C91.8318,121.8691,90.466,120.6108,91.36,119.94Zm-11.94-2.76a7.0842,7.0842,0,0,1,2.3013-1.15,3.2838,3.2838,0,0,1,1.4821-.1112c.46.1019.6846.5808,1.0851.6712.4262.0961.7471-.3252,1.2215-.49a2.5615,2.5615,0,0,1,1.4394-.1681,3.8641,3.8641,0,0,1,2.112,1.0572,4.5638,4.5638,0,0,1,1.0808,1.9274,7.4393,7.4393,0,0,1,.2515,1.264c.0791.6733.2711,1.1191-.4369,1.3245a5.1874,5.1874,0,0,0-2.37.8615,20.4612,20.4612,0,0,0-1.5491,1.7553c-.8819,1.0085-2.2344,2.6094-3.764,2.2407-.5676-.1368-.5662-.3459-1.0641.1623a10.2164,10.2164,0,0,1-.95,1.0952,4.1927,4.1927,0,0,1-2.6113.6574,2.0848,2.0848,0,0,1-2.0849-1.3933c-.28-1.3349.7851-1.354,1.6362-1.8741.9618-.5878,1.8653-.1683,2.9127-.4124a4.1772,4.1772,0,0,0,1.9672-1.25,7.8882,7.8882,0,0,1,1.66-1.4417c.47-.2647,1.0256-.2961,1.4838-.53.2219-.1133.51-.1329.3164-.5355-.0694-.144-.4359-.3448-.5519-.4837A5.5234,5.5234,0,0,0,82.6887,118.5a6.2037,6.2037,0,0,0-3.3287-.42A2.9259,2.9259,0,0,1,79.42,117.18Zm1.2-79.08a22.4443,22.4443,0,0,1,4.714-4.9011,9.3742,9.3742,0,0,1,2.8692-1.6433c.6438-.1991.9612-.321,1.1329.4a4.42,4.42,0,0,1-.12,2.1744,18.4645,18.4645,0,0,1-.7365,1.9876c-.1114.2808-.6987,1.3682,0,1.2622.4782-.0725,1.1086-1.4039,1.2751-1.7649a5.3644,5.3644,0,0,0,.3911-1.7037c.1656-1.3382.9356-1.7169,2.17-2.08.6221-.1828,1.2576-.3148,1.8843-.48a8.7363,8.7363,0,0,1,1.78-.5722,3.29,3.29,0,0,1-.5928,1.8466c-.2727.4069-.9645,1.0383-.9229,1.5768.023.2981.2654.4935.6758.2366.2184-.1367.4766-.9015.6354-1.1447a11.761,11.761,0,0,1,.7854-1.06c.3694-.4467.53-.4569,1.1081-.4455a8.5432,8.5432,0,0,1,4.5394,1.2729c.2478.1652,1.58,1.1358,1.4517,1.4976-.1432.4047-1.4844-.0815-1.7172-.1436-3.2325-.8619-7.19.1681-10.139,1.5622a18.0985,18.0985,0,0,0-3.4026,2.1586c-.5661.443-1.111.9122-1.6744,1.3584-.36.2854-.7994.4919-1.1468.7844a5.73,5.73,0,0,0-.9249,1.2769c-.2372.3569-.6349,1.1612-1.0351,1.3431-.3145.143-1.1713-.0866-1.5719-.0259a2.3874,2.3874,0,0,1-1.2187.0291c-.6567-.2389-.4289-.6128-.6894-1.1432-.1862-.3791-.5128-.4733-.5507-.9277a2.5846,2.5846,0,0,1,.1873-.9393A6.9907,6.9907,0,0,1,80.62,38.1Zm4.5,10.14a3.622,3.622,0,0,1-2.6648.9079c-1.8909-.381-2.934.747-4.4752,1.6121.0225-1.7919,1.57-2.5592,2.0937-4.1028.2849-.8406-.1777-1.3387-.3188-2.1229-.181-1.0062.58-1.2567,1.3637-.789.4446.2655.3548.3151.8587.1823a3.7226,3.7226,0,0,1,1.06-.2565,1.38,1.38,0,0,1,1.3671,1.075,1.4713,1.4713,0,0,1-.0865,1.265c-.2718.3011-1.134.3507-.7067.9127C84.1312,47.6079,85.1033,47.0089,85.12,48.24ZM75.4,55.86a9.7821,9.7821,0,0,1,2.4429-.3406,4.6922,4.6922,0,0,1,1.8989.84,3.8847,3.8847,0,0,1,1.7829,3.838c-.1739.7836-.8161.8668-1.3585.3531a2.86,2.86,0,0,0-2.36-.9077,2.4555,2.4555,0,0,0-1.127.4932c-.34.2628-.5172.6991-.8556.945a1.6045,1.6045,0,0,1-1.9572-.404,4.6764,4.6764,0,0,1-.8118-1.5919c-.178-.4705-.22-.4751-.7261-.5714-.3305-.0628-.663-.1183-.9911-.1933-1.119-.2557-2.2312-.7407-1.6627-2.0706.1491-.3487.4131-.57.3818-.921a3.3869,3.3869,0,0,0-.3783-.8225c-.2625-.5992-.6-1.4077-.1459-2.0053a1.1348,1.1348,0,0,1,.8187-.4039A1.78,1.78,0,0,0,71.5,51.555,4.5453,4.5453,0,0,1,72.88,51a2.31,2.31,0,0,1,1.48.033A5.0109,5.0109,0,0,1,78.1,53.52c.1808.34.4769.746.24,1.14-.1563.26-.8323.1955-1.1986.2212C76.6931,54.9127,74.4056,55.2636,75.4,55.86Zm8.46,12.9-.18.12a12.5264,12.5264,0,0,0-1.5974-2.2149c-.47-.4593-1.9378-1.4692-2.628-1.029-.8209.5235,1.6,1.1571,2.01,1.4072a4.0061,4.0061,0,0,1,1.5764,2.28,6.5659,6.5659,0,0,1,.2493,2.9138,14.61,14.61,0,0,1-.376,1.4546c-.12.4788-.104,1.1851-.4606,1.57-.7379.7956-.87-.9282-.9145-1.45A4.4367,4.4367,0,0,0,80.942,71.2c-.7522-.8625-1.8153-.5141-2.7929-.5254-.7946-.0092-.9862-.7321-1.4891-1.2547a2.2206,2.2206,0,0,0-1.2008-.6242c-.6076-.1744-1.1727-.3806-1.11-1.1424.05-.6083.8215-1.1349.26-1.8328-.1194-.1483-.6442-.5009-.7093-.6606a2.7091,2.7091,0,0,1,.2414-1.5351,2.1783,2.1783,0,0,1,.7326-.9949c.4072-.284.78-.148,1.1985-.2788.3315-.1036.2414-.03.4067-.44.0512-.127.098-.26.1614-.3816a1.7731,1.7731,0,0,1,.4725-.6342,2.1847,2.1847,0,0,1,.75-.311c.5343-.1543.8029-.27,1.2644.0525.4317.3013.6318.8745,1.0289,1.1744.2933.2214.7335.0253,1.1694.0709a3.0789,3.0789,0,0,1,2.14,1.3592A5.5261,5.5261,0,0,1,83.86,68.76Zm.12-6.42a8.2342,8.2342,0,0,1,1.2967-.4222,3.4775,3.4775,0,0,1,1.2761.1392c.8973.1891.4092.5782-.1228.9292a3.8529,3.8529,0,0,1-1.5434.7011C84.2308,63.7252,83.9719,62.9386,83.98,62.34Zm-.6,13.56a9.8487,9.8487,0,0,1,3.1112,1.1289c.1372.1043.5787.4126.6088.6111.0728.48-.3623.3565-.7072.43a17.1829,17.1829,0,0,1-2.0591.55,7.87,7.87,0,0,1-1.6158-.287c-.3767-.0492-.479.11-.6739-.1953a1.6484,1.6484,0,0,1-.016-.7943C82.1461,76.5147,82.7627,76.3388,83.38,75.9Zm-6.96,6.72c.3258,1.3524-.8185,3.4588-1.778,4.3825A8.2318,8.2318,0,0,1,70.54,88.74a3.3244,3.3244,0,0,1,.5254-1.9479A3.9173,3.9173,0,0,0,71.44,84.435a5.99,5.99,0,0,0-.5128-2.2969,12.3252,12.3252,0,0,1-1.041-2.0237,1.6519,1.6519,0,0,1-.1106-.8042c.1036-.4729.7473-.7734.8318-1.22.0764-.4038-.612-.603-.8478-1.0118a2.169,2.169,0,0,1-.1182-1.4332A2.9336,2.9336,0,0,1,70.78,73.8c.3817-.2116,1.46-.0358,1.5-.66.0117-.1823-.608-.7389-.7015-.9973a1.37,1.37,0,0,1-.0664-.81c.1533-.6306.7972-1.0655,1.29-1.4207a2.4079,2.4079,0,0,1,2.0364-.3732,2.2663,2.2663,0,0,1,1.69.8966c.1628.2644.1214.5714.2454.8262.1565.3214-.26.1637.3058.3783a1.8015,1.8015,0,0,0,.43-.0485,9.9346,9.9346,0,0,1,1.9266-.151,1.4793,1.4793,0,0,1,1.2518,1.0082A2.452,2.452,0,0,1,80.65,73.74a1.7293,1.7293,0,0,0,.192,1.4474c.7764,1.5572.28,3.4983-.3956,4.9985A11.7546,11.7546,0,0,1,79.3,82.34c-.2334.3044-.02.0913-.36.28a3.92,3.92,0,0,0-.5716.2783c-.288.21-.7066.8018-1.1084.8018-.0465-1.3237.1536-3.2715-.856-4.31-.2451-.2521-.5555-.4735-.7063-.1392-.0975.2161.1064.8332.1473,1.0366C76.0029,81.0733,76.2324,81.8415,76.42,82.62Zm1.2,7.92c-.5247-.0416-1.13-.6383-1.5167-.9464-.3275-.2612-1.3567-.92-1.4234-1.3751-.0388-.2645.3475-.4063.5673-.6378.28-.295.1866-.38.5692-.3252a1.5747,1.5747,0,0,1,.643.4043A3.8577,3.8577,0,0,1,77.62,90.54Zm-18.3-.36c-.5371-.8061.78-2.2288,1.0025-3.0557.1874-.6961.313-2.884-.6425-2.9443.0641,1.7923-.0305,4.177-1.6508,5.3619a5.6035,5.6035,0,0,1-2.3739.8577A3.3235,3.3235,0,0,1,52.7,89.3069c-1.4467-1.3645-3.0048-3.9277-2.42-6.0029a2.226,2.226,0,0,1,1.7264-1.6658c.37-.0685.4428.08.6009-.2672a1.67,1.67,0,0,0-.0366-.77A3.322,3.322,0,0,1,52.54,78.9a3.4223,3.4223,0,0,1,2.4-1.86c.3752-.0514,1.2148.5232,1.44.42.0934-.0428.2885-.5983.3646-.7113a2.3551,2.3551,0,0,1,.5225-.5713,3.9281,3.9281,0,0,1,.8169-.4276c.5812-.2581.8418-.423,1.4618-.1931a5.515,5.515,0,0,1,1.4633.7619c.4886.3751.3629.7321.6615,1.1585.27.3856.0778.2808.5443.1929.3242-.0611.6179-.4141.945-.45a2.7894,2.7894,0,0,1,2.875,2.7448c-.0077.389-.2489.6477-.347,1.0064-.2066.7557.5411.6131,1.1085.8786a2.1424,2.1424,0,0,1,1.387,2.0777,5.262,5.262,0,0,1-.13,1.2793c-.0113.0531-.09.1145-.0963.1558-.0349.2247-.01.6306-.0567.9245a4.7648,4.7648,0,0,1-2.0031,2.93C63.9967,90.6337,61.5451,90.3969,59.32,90.18Zm2.64,6.72c-.3657,0-1.2288-2.5221-1.34-2.923a5.9935,5.9935,0,0,1-.2828-2.2887c.0646-.41.0969-.4772.6024-.5483a1.4953,1.4953,0,0,1,.9387.2442C63.0687,92.2781,63.1817,96.01,61.96,96.9Zm-6,.18c-.222-.3593-.1243-.7992-.2218-1.1885-.11-.4391-.4182-.6753-.6-1.0717a3.347,3.347,0,0,1-.0907-1.9461,3.0813,3.0813,0,0,1,.7389-1.7,1.7312,1.7312,0,0,1,.9153-.3225A6.2758,6.2758,0,0,1,57.91,90.6c.6658.2487-.19,2.9885-.3609,3.5251C57.2543,95.0483,56.8364,96.5237,55.96,97.08ZM47.2,87.84c-.2565.2565-1.347-.3939-1.6141-.5616a5.9254,5.9254,0,0,1-1.55-1.4475,7.8866,7.8866,0,0,1-1.55-4.1669,7.3148,7.3148,0,0,1,.1808-2.2545c.1061-.4364.9334-1.9019.1211-1.7035-.5624.1374-.9291,1.6384-1.048,2.154-.1964.852.1665,1.8318-.18,2.64-2.3632-.6561-4.5461-3.9384-3.75-6.345.2383-.7208.9468-1.0286,1.23-1.695.2675-.6286-.0953-1.2965.1265-1.9294A2.1194,2.1194,0,0,1,40.9,71.2082c.717-.0948,1.7487.3711,2.4.1318.3694-.1357.6022-.7391.9824-.9363.285-.1478.6362-.1971.9363-.3157.43-.17.4576-.2585.9657-.1491a4.3188,4.3188,0,0,1,1.1168.3855c.4328.2287,1.1563.7462,1.2789,1.2555.094.3906-.1994.8008-.2585,1.1654-.1239.7639.2555.4527.82.6861a1.8936,1.8936,0,0,1,1.1253,1.2156,4.7745,4.7745,0,0,1-.4116,2.1577c-.212.442-.0721.19-.4347.4152-.375.2325-.31.0151-.4588.3021-.2468.4775.2023.6336.4588.8979.4368.45.3669.8771.1229,1.46a17.2049,17.2049,0,0,1-2.3035,3.2415C46.1022,84.6806,47.05,86.1448,47.2,87.84ZM28.42,82.38c.6669-.4513.6705-1.9437,1.0294-2.6239a5.5333,5.5333,0,0,1,3.3017-2.151c.5945-.1359,1.2355-.1442,1.8313-.26a3.2243,3.2243,0,0,1,2.0643.1842c.4935.3377.72,1.3105.936,1.85.1526.3815.3116.7658.43,1.16.1274.4231.17.3866-.1155.6081a4.7966,4.7966,0,0,1-1.1649.3955c-.4717.1666-.9412.3427-1.3967.55a4.1319,4.1319,0,0,0-2.1294,1.6287c-.1.2107-.2869.8275-.1064,1.0289.22.2457.8636-.81,1.138-1.0786a6.5275,6.5275,0,0,1,3.3088-1.78,2.874,2.874,0,0,1,1.6732.069c.234.1306.2359.323.4165.4786a1.91,1.91,0,0,0,.8.38,3.0279,3.0279,0,0,1,1.4487.6674c.3125.3306.66,1.1558.4263,1.56-.2473.4275-1.036.677-1.4431.9006a3.5754,3.5754,0,0,0-1.3514,1.0856c-.8589,1.3127-.6937,3.2216-1.9553,4.313-.8176.7073-1.6568.4012-2.4745-.1152-.5541-.35-.33-.1676-.7346.0748-.2314.1386-.4006.387-.6424.5292a2.0507,2.0507,0,0,1-1.7914.1667c-.6728-.2656-.7254-.7123-.97-1.2931-.1686-.4-.2269-.4124-.6286-.1476-.4481.2954-.46.3971-1.03.37a2.2515,2.2515,0,0,1-2.225-2.4462,1.6041,1.6041,0,0,1,.17-1.0788c.2033-.24.7838-.2586.945-.525.2963-.49-.3385-.5668-.6731-.8189a2.4447,2.4447,0,0,1-.6667-.7044C26.1009,84.0651,27.3527,82.9284,28.42,82.38Zm4.62-23.34c-1.4533-.2586-3.6268.5839-4.474-1.0761-.3046-.5968-.5714-1.2666-.06-1.7923.24-.2463.4911-.1427.42-.5584-.0481-.2813-.3349-.4-.5663-.4859-.41-.1519-.5815-.0236-.8691-.4088a1.51,1.51,0,0,1-.2264-1.0814c.1056-.6187,1.0749-1.2855.93-1.7476-.044-.14-.4079-.3515-.4992-.54a1.7268,1.7268,0,0,1-.139-.9358,2.538,2.538,0,0,1,.9906-1.5511A3.7136,3.7136,0,0,1,29.8,48.12c.7382-.2074,1.2439.5572,1.8862.4262.507-.1034.7512-1.0778,1.2538-1.3462a1.7937,1.7937,0,0,1,1.98.0565c.512.4036.3464.8648.581,1.3755.1419.3089.0992.4735.5366.1349.3035-.2349.2525-.499.7073-.5837.6348-.1181,1.3823.3882,1.9612.595a4.1283,4.1283,0,0,1,1.8066.94,6.8917,6.8917,0,0,1,1.6632,3.7193,2.0029,2.0029,0,0,1-.79,1.7644,10.9663,10.9663,0,0,0-.92.8558c-.3113.3879-.39.9733-.7659,1.3021a19.0408,19.0408,0,0,0-2.4682-2.5461,4.9113,4.9113,0,0,0-1.52-.9789c-.3783-.1-.8166-.013-1.2536-.1575-.2661-.088-.6289-.38-.7662.0087-.16.4546.6432.5045.9476.5631a5.6441,5.6441,0,0,1,2.3425,1.1888,6.9322,6.9322,0,0,1,1.9447,2.0526,2.3751,2.3751,0,0,1,.4067,1.3056c-.0766.4293-.6526.78-.9889,1.0528-.3761.3053-.69.6384-1.0364.9717-.5329.5131-.6332-.0722-1.146-.48A6.9932,6.9932,0,0,0,33.04,59.04ZM36.7,61.8a9.4281,9.4281,0,0,1-.24,1.8c-.4295-.0439-1.114-.6669-1.4725-.8873a7.9655,7.9655,0,0,1-1.6385-1.0258A5.8945,5.8945,0,0,1,32.62,60.36c-.1616-.8236.9137-.4276,1.3265-.308a7.0593,7.0593,0,0,1,1.6193.7095C36.0168,61.027,36.2656,61.5917,36.7,61.8Zm.84-19.86c.1813.3928.1853.8167.66.72.1961-.04.3911-.3708.4969-.5067.2493-.32.5312-.9629.9222-.5867a5.4313,5.4313,0,0,1,.4935,2.0632c-.0683.3371-.5539.8041-.6966,1.1642a2.53,2.53,0,0,0-.1215,1.7516A4.1994,4.1994,0,0,0,40.1,47.6635a1.8024,1.8024,0,0,1,.3664.6659c.107.4632.15.4026-.2614.3621-.6209-.0612-1.265-.8372-1.8364-1.0635-.6268-.2483-1.1656.0617-1.7822-.0622-.5855-.1176-.9257-.6666-1.4295-.9356-.3372-.18-.4517-.0786-.4969-.4441-.0475-.3841.3352-.4908.491-.7308.16-.2471.1872-.1052.2263-.511a6.1,6.1,0,0,0-.0145-.6307,5.4285,5.4285,0,0,1,.0864-1.3591C35.7073,41.92,36.5777,41.7474,37.54,41.94Zm9.3,11.34c-.4373-.0182-1.3907.1473-1.5945-.2909-.1416-.3047.0789-.7165.2233-.9782a4.0827,4.0827,0,0,1,1.8791-1.6684c.3729-.1721.763-.3035,1.1335-.4819.1584-.0763.3307-.2.4906-.2583.4116-.15.29-.0772.7021-.0535a4,4,0,0,1,1.96.4094c.6057.5271-.23,1.3921.1863,1.7617.1907.1694.6443.0257.8543-.0087.602-.0987.8668-.0392,1.1857.6087a1.8316,1.8316,0,0,1,.1308,1.09,2.148,2.148,0,0,1-.7535.8917c-.4635.3678-.8419.2319-.6653.8059.1333.4333.4334.6954.4724,1.1857.049.6158-.1172.5527-.5618.7685-.212.1029-.3774.2687-.5788.3843a1.45,1.45,0,0,1-.6914.2369c-.4529.027-.9748-.3781-1.3724-.3233a.8985.8985,0,0,0-.4824.3038c-.1564.2889.01.2535.0343.5461.0519.6149.15.7583-.3839,1.1348a1.7921,1.7921,0,0,1-2.0585.0675c-1.3243-.8628-2.2863-2.1662-4.0027-1.2094-.6934.3865-1.2106.8171-2.05.54-.47-.155-.4868-.3331-.3863-.8983a3.2087,3.2087,0,0,1,.7844-1.4643c1.2174-1.4237,3.1916-2.8309,5.1493-2.4158a6.8709,6.8709,0,0,1,1.45.5235c.3373.1567,1.3025.8732,1.5853.7119C50.4691,54.6356,47.0336,53.3328,46.84,53.28Zm8.34-5.76c0-.5222.0221-.7691.6-.95a4.8889,4.8889,0,0,1,1.48-.03,2.5706,2.5706,0,0,1,1.6842.6042c.9092.6744,2.1295,1.8483,2.0465,3.0933a1.4762,1.4762,0,0,1-.2286.7149c-.2108.3194-.5057.276-.73.4982-.4875.4832.3973.8444.7413,1.1429a1.31,1.31,0,0,1,.4386,1.3169c-.0949.4624-.316.6464-.86.6379a1.6962,1.6962,0,0,1-.5827-.16c-.4853-.184-.3728-.2076-.7463.1214-.2981.2625-.4194.98-.7228,1.17a1.7932,1.7932,0,0,1-1.0261-.0057,2.626,2.626,0,0,1-.7459-.4564c-.7585-.48-.3662.5-.868.8821-.5106.3883-1.7215.1946-1.8871-.4238-.1382-.5162.2431-.9478.5267-1.3282.9407-1.2619.8052-2.4586-.7538-3.1242a2.9961,2.9961,0,0,1-.5158-.1951c-.4488-.3468-.0648.0269-.2172-.3618-.1254-.32-.0508-.507-.3-.8094-.4511-.5482-1.5435-.7768-.5805-1.4877a2.5837,2.5837,0,0,1,2.6448-.2888,4.1527,4.1527,0,0,1,1.31.7313c.3821.4051.172.8738.4109,1.32.1445.27.3391.4187.5878.1277.1822-.2133.0554-.7421-.0294-1.0393A2.4865,2.4865,0,0,0,55.18,47.52Zm6.12,1.26c.061-1.0286,1.6657-1.3385,2.4812-1.3572a5.2389,5.2389,0,0,1,2.7524.6781c1.0392.7822-.6958,1.1607-1.0371,1.7186-.1843.3013-.9415,2.2679-.1132,1.8727.4385-.2092.5964-1.3831.9723-1.7577a5.1767,5.1767,0,0,1,4.1013-.931,3.0636,3.0636,0,0,1,1.7707.806c.5271.6681-.75.8713-1.2678,1.0526-1.187.4159-2.4926.8773-2.46,2.3513.0247,1.106.9734,2.6187.1822,3.6216-.5683.72-1.1288.4-1.7793.1056-.2451-.111-.5132-.3145-.8031-.1807-.4828.2228-.512,1.0415-1.1034,1.1677a3.1488,3.1488,0,0,1-1.83-.5929A2.2114,2.2114,0,0,1,62.5,55.38c-.4389.022-.88.06-1.32.06.0674-.9337,1.1109-1.7741.7111-2.7607-.1025-.2529-.3061-.3512-.4513-.5528q-.436-.1085-.191-.505.0727-.32.1476-.64A3.4561,3.4561,0,0,0,61.3,48.78Zm9.48,24.24c-.3143.3278-.5491-.3246-.7506-.5544a3.4749,3.4749,0,0,0-1.5449-1.0978c-.5307-.1707-.7922-.1021-1.034-.6494a2.2751,2.2751,0,0,1-.1075-1.3347c.2172-.8476.6769-.3794,1.3521-.5637.4714-.1287.4187,0,.214-.5511a6.4393,6.4393,0,0,1-.3421-.7529c-.19-.8033.4884-1.4246,1.161-1.7719a4.1406,4.1406,0,0,1,2.0242-.024,3.4544,3.4544,0,0,1,1.8316.3484c.3471.279.2386-.02.3026.5206a4.0253,4.0253,0,0,1-.1068.8846,5.7939,5.7939,0,0,1-.1063.8806c-.1378.439-.14.3927-.5566.5925A4.2035,4.2035,0,0,0,71.42,70.248a7.871,7.871,0,0,0-.7529,1.15c-.1888.3966-.19.3351-.1115.7613C70.6124,72.4685,70.8672,72.671,70.78,73.02ZM47.26,66.24c.5225-.3689.8571-.7714,1.4969-.6025a3.6342,3.6342,0,0,1,1.1586.4341A1.5538,1.5538,0,0,1,50.5482,67a6.8805,6.8805,0,0,0,.0718.8c.29.4536.32.0752.6672.1988.52.1854,1.4456.3878,1.7847.8714a1.7556,1.7556,0,0,1,.2.94c.0244.5942-.0147.8522-.4994,1.2-.8213.5893-1.68,1.0536-2.4458,1.7173-.17.1476-.0842.3116-.3668.2922-.1569-.0108-.4612-.4821-.5108-.6009-.2075-.4975-.0819-.944-.3973-1.4345a3.3731,3.3731,0,0,0-1.1992-1.0986c-.2064-.1152-.4539-.1689-.653-.2856-.4034-.2363-.3542-.0045-.3777-.4945a4.6993,4.6993,0,0,1,.2968-1.1946A5.38,5.38,0,0,0,47.26,66.24ZM59.02,56.22c.0976-.183.4916-.9348.72-.96.2084-.023.6059.4215.7752.5331.5118.3375,1.24.3183,1.2044,1.0112-.0271.5233-.3734.9622-.4166,1.4851-.0464.5621.5628,1.4126.3574,1.9152-.3843.94-2.2552.6249-2.9333.1152-.3853-.29-.3707-.4308-.17-.9222a6.8163,6.8163,0,0,1,.377-.6612A3.722,3.722,0,0,0,59.02,56.22ZM69.7,64.68c-.14.4132-.6544.6228-.97.8745a3.371,3.371,0,0,0-.4732.4286c-.1246.1453-.3661.8-.4764.857-.1009.0519-1.0877-.7606-1.3826-.8664A3.2808,3.2808,0,0,0,64.06,66.06a2.2117,2.2117,0,0,1,.9259-2.1847c.4775-.2508,1.3011.0112,1.6131-.412.1024-.1389.0129-.41.101-.5232.1158-.1484.5627-.2309.73-.3106a5.6914,5.6914,0,0,0,.6913-.37c.0852-.0561.6067-.5678.6784-.5791.6618-.1043.3311.7858.33,1.155A5.091,5.091,0,0,0,69.7,64.68Zm-4.26-1.74c-.1791.2911-.56.1983-.84.3a4.6445,4.6445,0,0,0-.7184.4516,2.0066,2.0066,0,0,1-1.9836.0406c-.5415-.26-2.2278-1.1793-1.6866-1.9748.1677-.2465.8875-.3769,1.1446-.4875.4567-.1965.8226-.52,1.2733-.4705a4.7933,4.7933,0,0,1,.8575.2433c.4784.1642.4573.105.7985.5311C64.5966,61.9625,65.5484,62.507,65.44,62.94Zm-7.38,1.02a4.2834,4.2834,0,0,1-1.5272.3588c-.499.0452-.4791.0131-.6341-.5371a7.9632,7.9632,0,0,0-.3126-.8928c-.25-.6116-.1927-.6211.3246-1.0288.3839-.3025.4559-.6037.9784-.5689a1.482,1.482,0,0,1,.9061.4817A1.98,1.98,0,0,1,58.06,63.96Zm-.78-3.6c.5287,0,.7507.0728.78.66C57.4885,60.8771,57.353,60.9451,57.28,60.36Zm.96.6c.6834.2628.867.3392,1.1914.9674a4.8338,4.8338,0,0,1,.7334,1.7181c-.0046.3705-.0946.3627-.58.434-.5977.0878-.5821-.0229-.6031-.5993a3.3606,3.3606,0,0,0-.19-1.2288C58.6225,61.8331,58.25,61.4292,58.24,60.96Zm-1.26,4.08a2.5073,2.5073,0,0,1,2.6271,2.0978A2.4477,2.4477,0,0,1,59.68,68.22c-.1362.29-.6946.538-.9273.772-.41.4119-.76,1.5642-1.3742.8874-.5988-.66-.2219-1.8536-.8525-2.5791-.4108-.4726-1.3517-.4368-1.0151-1.2133C55.756,65.5216,56.5054,65.3473,56.98,65.04Zm1.68-.3c.1027-.41.52-.2127.8542-.0967.5137.1786.4658.3065.4658.8167A1.6638,1.6638,0,0,1,58.66,64.74Zm1.8,1.08a2.8916,2.8916,0,0,1,1.8576.6383c.4839.57-.12,1.2523-.6566,1.5856-.5978.3712-1.2165.3-1.4364-.3865a3.5614,3.5614,0,0,1-.182-1.03C60.0514,66.1906,60.1891,66.1935,60.46,65.82Zm.12-1.38c.3049-.3049.5812-.38.7839-.02a1.7941,1.7941,0,0,1,.0561.86c-.1635.1771-.5528.0143-.6527-.088A1.0408,1.0408,0,0,1,60.58,64.44Zm1.56,1.14c0-.4649-.1481-.9072.36-1.08.605-.2058.76.3695.8347.8087C63.5611,66.6385,62.8978,66.07,62.14,65.58Zm-4.5-6a1.3457,1.3457,0,0,1-.7247-.032c-.1149-.04-.4277-.34-.5353-.328-.5378.0617-.19.9214-.2772,1.315A1.5781,1.5781,0,0,1,54.14,61.7381a4.89,4.89,0,0,1-1.8446-1.4723,1.934,1.934,0,0,0-.9438-.6677,3.3005,3.3005,0,0,1-.936-.324.6238.6238,0,0,1-.0247-.8593c.2655-.2055,1.0717-.1448,1.3976-.1988a2.95,2.95,0,0,0,1.2684-.425c.4391-.3168.4867-.9576.9954-.9485.3207.0057.4859.3439.7672.3976a1.546,1.546,0,0,0,.7834-.1923c.5239-.281.5515-.6292,1.2254-.6351.28-.0025.5591.0411.8375.0639.4388.036.4988-.0544.6746.3376A2.5161,2.5161,0,0,1,57.64,59.58ZM54.7,66.3a12.1488,12.1488,0,0,1-3.36.96v-.72c1.1936.1965,1.0177-3.2992,1.2549-4.0023.1588-.4709.31-.4381.792-.3249A2.8307,2.8307,0,0,1,54.82,62.88C55.7534,63.8425,55.1437,65.2621,54.7,66.3Zm-4.02-6.24c.6654.5048,1.7292,1.3332,1.1791,2.2356-.15.246-.556.4281-.6391.7044-.1138.3781.2453.7113.3724,1.0154a1.8841,1.8841,0,0,1-.3333,1.7668c-.3945.3138-1.8043-.51-2.181-.8361-.2661-.2307-.18-.025-.234-.422a8.2161,8.2161,0,0,1,.072-1.0081,1.504,1.504,0,0,0-.4008-1.0925c-.42-.509-1.0309-.82-1.2683-1.47-.1711-.468-.1589-.5206.2116-.6474a3.5639,3.5639,0,0,1,1.0674-.0335,5.9136,5.9136,0,0,0,1.0479.0556c.1812-.0376.2044-.0989.3563-.1483l.15-.18Zm2.7,11.22c.2483-.199.2553-.0624.395-.37a3.3965,3.3965,0,0,0,.134-1.142,2.48,2.48,0,0,0-.1052-.9324c-.1229-.3341-.3935-.4545-.5566-.7234-.43-.7088.6128-.7535,1.1737-.7691a2.3883,2.3883,0,0,1,1.5279.4,2.1248,2.1248,0,0,1,.7534,1.4436c.0674.458.1.5928-.2426.8189a5.529,5.529,0,0,1-.9195.3124,1.947,1.947,0,0,0-1.2371,1.0763c-.1528.4324-.1839.825-.7431.5307C53.3031,71.79,53.0982,71.5557,53.38,71.28Zm5.16-.48a2.8866,2.8866,0,0,1,3.063-1.9885,2.34,2.34,0,0,1,1.6714.9945c.16.2046.2555.5113.4293.6886q.0485.4035.426.2061.2682-.0447.5346-.0989c.4674-.0757,1.683-.27,1.7958.4383.0718.4514-.985.839-1.3,1.2133-.3513.4174-.5869,1.37-1.0665,1.4316-.2278.0291-.4819-.1314-.7156-.14a2.23,2.23,0,0,0-1.0774.2984,3.2273,3.2273,0,0,0-.84.6157c-.1526.1576-.3755.7-.5207.7812-.3915.22-1.549-.3989-1.8833-.5863-.5295-.2967-1.0046-.6778-1.5216-.994a2.6557,2.6557,0,0,0-.9151-.46c-.2824-.0234-.5647.2341-.8868.1849-1.0587-.1616-.9732-1.6492-.2238-2.1889A3.8481,3.8481,0,0,1,58.54,70.8Zm5.88-.96c-.416-.4737-1.1052-.78-1.44-1.32a1.1383,1.1383,0,0,1-.1807-.6764c-.0033-.4591.0315-.36.2922-.5778a2.9634,2.9634,0,0,1,3.2117-.5855,1.7167,1.7167,0,0,1,.9072.8636c.2826.61-.15.85-.3736,1.39-.1186.2866-.0914,1.247-.3167,1.3263-.103.0363-.67-.2807-.85-.3214A5.6918,5.6918,0,0,0,64.42,69.84Zm9.12-6.72a8.2162,8.2162,0,0,1-.385,1.87c-.1908.3751.029.28-.4255.2356a4.2823,4.2823,0,0,1-.7462-.2712c-.4787-.1507-1.19-.1423-1.5294-.4236a2.7374,2.7374,0,0,1-.5972-1.044,1.3626,1.3626,0,0,1,.1074-1.0552.88.88,0,0,0,.0791-.32q-.03-.2314.2489-.21c.1547-.2708.2614-.0428.14-.4158-.2933-.905-1.5827-.5013-1.3782-1.7144a1.3527,1.3527,0,0,1,.4224-.7981c.335-.3225.3452-.2489.7545-.1844a4.949,4.949,0,0,1,1.96.6812c.6446.469.835,1.3133,1.38,1.87.3259.3326.8073.3511.7521.8027C74.2733,62.5476,73.7042,62.7663,73.54,63.12Zm-4.5-4.98c-.103.1726-.3224.1946-.4284.32a1.41,1.41,0,0,0-.2716.72,5.6328,5.6328,0,0,0,.004,1.474c.0431.5814-.0959.5781-.5726.8613a5.6736,5.6736,0,0,1-1,.5061,1.3723,1.3723,0,0,1-1.943-.7779c-.3506-.9625-.5539-1.1118-1.62-1.1184-.4839-.003-.5928.0332-.8051-.4452a2.3,2.3,0,0,1-.2871-1.2014c.1805-1.1818,1.2223.0391,1.8671.1662a2.1878,2.1878,0,0,0,1.3213-.2033c.3679-.1713.6934-.6547,1.0354-.7815.4571-.1694,1.0676.3178,1.5017.3768A3.0331,3.0331,0,0,0,69.1,57.84Zm-26.16-4.2a11.2013,11.2013,0,0,0-.3647-2.0107c-.1584-.4327-.4332-.8327-.6217-1.2534a3.5346,3.5346,0,0,1-.4113-1.45c.0193-.7112.2819-.6759.8346-.3337a4.7428,4.7428,0,0,1,1.7765,2.5233,3.6458,3.6458,0,0,1,.295,1.5592c-.0788.4067-.03.3744-.4583.5458ZM39.52,65.52a3.7915,3.7915,0,0,1,.8547-.3364c.37-.0573.5508.1328.8252-.1436.1906-.192.21-.2015.1421-.4485-.0874-.3184-.1876-.223-.4886-.2613a3.2274,3.2274,0,0,0-1.5059.4016,8.6313,8.6313,0,0,0-.7767.4108c-.353.2033-.5826.53-.9087.2575-.5746-.4811-.3657-2.3465-.2507-2.9924a3.4737,3.4737,0,0,1,1.8824-2.481,4.0871,4.0871,0,0,1,1.1892-.3814c.47-.0756,1.1432.15,1.5567.0346.4791-.1342.636-.7729,1.1368-.93a2.0508,2.0508,0,0,1,1.4375.0647A2.2421,2.2421,0,0,1,46.19,60.16c.1174.389.035.7871.1194,1.1677.0982.4429.0555.2521.4013.5344.1947.1589.4486.25.6493.4054a1.7311,1.7311,0,0,1,.7084,1.5128,2.7128,2.7128,0,0,1-.051.7689c-.1475.4462-.2238.3821-.69.56-.6513.248-.9794.3775-.893,1.1215.0454.391.2741.7579.2925,1.1536A2.5279,2.5279,0,0,1,46.18,68.94a6.87,6.87,0,0,1-1.7323.5559,2.6423,2.6423,0,0,0-.7877.3442c-.3519.2961-.3112.6449-.7642.7733-.7476.212-1.6783-.154-2.47,0a3.1137,3.1137,0,0,0-2.0784,1.7558,2.3318,2.3318,0,0,0-.2753,1.3376c.0187.2967.1819,1.0483-.2923,1.1729-.6969.1832-1.5258-1.6076-1.68-2.0419a6.5036,6.5036,0,0,1-.2824-3.1789A3.3682,3.3682,0,0,1,36.34,68.1c.3523-.3858.7645-.6318,1.105-1.0743A4.5452,4.5452,0,0,1,39.52,65.52Zm-2.34,9.9c.1.22.0945,1.1056-.12,1.26-.0622.0447-.1937-.0048-.261.021a3.9822,3.9822,0,0,1-1.1615.0278,9.0972,9.0972,0,0,1-2.5072-.1049c-.361-.1016-.6932-.28-1.0656-.3512-.2958-.0567-.9133.0662-1.0793-.122-.4061-.46,1.338-1.3165,1.6587-1.3967A5.5382,5.5382,0,0,1,37.18,75.42ZM40.06,88.2a3.8344,3.8344,0,0,1,2.126-2.0831c.592-.3088.779-.4813,1.261.07.147.168.68.7462.633.9935-.0183.0968-.2488.2066-.306.2691A7.9228,7.9228,0,0,1,41.21,88.8656c-.2875.1237-.9807.5124-1.3134.4525C39.3707,89.2233,39.917,88.5574,40.06,88.2Zm7.44-4.32c.7679-1.5536,2.3284-2.3176,2.6832-4.1412A4.852,4.852,0,0,0,50.24,78.38a2.0246,2.0246,0,0,1,.26-1.496,3.862,3.862,0,0,0,.4491-2.8742,2.3316,2.3316,0,0,1-.0842-.5787c.0747-.4629.0251-.2019.3151-.4912a2.2174,2.2174,0,0,1,1.4112-.5088,1.3926,1.3926,0,0,1,1.0148.08,1.9445,1.9445,0,0,1,.8348.6279c.182.2617.1037.7752.2593.9611.2362.2824.9679.17,1.2562.1529.4187-.0248,1.8115-.2013,1.5125.6658-.0936.2713-.8814.7381-1.0976.9221A1.9036,1.9036,0,0,1,54.9,76.48a3.7593,3.7593,0,0,0-2.9649,2.1612A4.3619,4.3619,0,0,0,51.654,79.67,6.1713,6.1713,0,0,1,51.58,80.82c-.3246.809-1.4468,1.2519-1.8492,2.08-.561,1.1551-.0827,2.73.3384,3.86.2031.5449.5821.9837.8061,1.4854.1694.3793.1914.5-.2951.608a2.2933,2.2933,0,0,1-1.21-.179C47.3829,87.8832,47.3444,85.67,47.5,83.88Zm21.48,2.34a10.5107,10.5107,0,0,0-.111-3.4271A2.6619,2.6619,0,0,0,66.7,81.12a5.0419,5.0419,0,0,0-.07-2.4056,3.9891,3.9891,0,0,0-1.4-1.5232,3.8371,3.8371,0,0,0-1.8544-.5986c-.69-.041-1.5929.3029-1.5862-.7044.0079-1.1861,1.4228-1.6179,2.378-1.472.3776.0577.5372.2653.8035-.0591.1759-.2143.0732-.5669.14-.8169A2.85,2.85,0,0,1,66.6,71.9581a3.4066,3.4066,0,0,1,2.8437.9238c.8991,1.0508-.24,1.6966-.69,2.6384a1.6067,1.6067,0,0,0,.2506,1.7476c.1655.2794.566.76.5586,1.0607-.0075.3049-.2836.5947-.3893.87-.5967,1.5515,1.128,2.7091,1.3842,4.18a8.1651,8.1651,0,0,1-.6748,4.218c-.3867.85-1.7541,2.1765-2.7626,1.9242C67.5433,88.3082,68.577,87.4417,68.98,86.22Zm6.96-35.88c.0369-.5606,1.314-1.81,1.5715-1.2168A3.41,3.41,0,0,1,77.2,50.88C76.8709,51.1445,76.1043,50.5866,75.94,50.34ZM72.22,39c.6761.1691,1.0758-.9287,1.5811-1.2506a2.2837,2.2837,0,0,1,2.1255-.0992c1.6768.7434,1.3334,2.1193,1.3334,3.63.42-.0466.8643-.1851,1.2.015a3.4647,3.4647,0,0,1,.84.945,1.1338,1.1338,0,0,1-.0063.998,3.7121,3.7121,0,0,1-.7318,1.1012c-.0592.0666-.32.1882-.3419.2407-.1409.3322.1214.385.2894.5471.3925.3788.793.51.74,1.0975a2.8366,2.8366,0,0,1-.8242,1.3679,3.6213,3.6213,0,0,1-1.1094.8388c-.3374.1514-.8344.05-1.0728.17-.3212.1623-.5719.8223-.8271,1.0755a1.3584,1.3584,0,0,1-1.1559.483,2.09,2.09,0,0,1-1.2745-.8105,3.6842,3.6842,0,0,0-1.3588-.8817c-.2414-.0948-.49-.1665-.7385-.24-.45-.1335-.4974-.0571-.5792-.4583a3.7267,3.7267,0,0,1,.6379-1.987,4.7646,4.7646,0,0,1,1.1147-1.3372c.53-.4273,1.3584-.473,1.3584-1.2451a4.2249,4.2249,0,0,0-2.8509,1.7848,6.4982,6.4982,0,0,0-.8268,1.4253c-.1634.3879-.1722,1.1688-.4022,1.47a3.0888,3.0888,0,0,1-1.08.315c-.4757.0343-.4881-.0011-.8688-.2777a10.0541,10.0541,0,0,0-1.6119-.9784c-.32-.1512-.6187-.21-.7958-.4769a2.5636,2.5636,0,0,1-.1447-1.0733,5,5,0,0,1,.2254-1.6619A5.1235,5.1235,0,0,1,66.81,41.2485a14.7894,14.7894,0,0,1,1.36-.7588c.308-.1935.2878-.0572.3531-.4319.0495-.2838-.1275-.5053-.0231-.8178C69.007,37.7216,71.741,37.2413,72.22,39Zm-5.04-2.34a2.4768,2.4768,0,0,1,1.4654-.2657c.2148.0436,1.2051.1385,1.3546.3257.3656.4578-.4424.8235-.7,1.0132-.2834.2083-.7968.7925-1.1345.8583-.2794.0544-.2833-.0426-.4743-.3444C67.4613,37.8843,66.9456,37.1056,67.18,36.66Zm-1.32.48c.7441-.1872,1.1,1.14,1.2145,1.6275a2.8907,2.8907,0,0,1,.1323,1.0818c-.0793.3832.0462.1955-.2639.4657-.23.2005-.5763.316-.8265.504a4.6955,4.6955,0,0,0-1.4955,1.9935A6.4662,6.4662,0,0,0,64.15,44.55c-.07.5718.12,1.807-.4031,2.076-.3769.1939-.9735-.076-1.385,0-.4812.0888-1.1276.9318-1.5419.894-.672-.0612-.951-1.6724-1.0218-2.1352a7.7978,7.7978,0,0,1,.0207-2.7593c.0679-.3122.9622-2.1348.089-1.97-.9071.1715-.8537,3.0293-.84,3.68A9.8646,9.8646,0,0,1,59.26,46.44c-.1931.1046-.8217-.4521-1.0467-.5366a3.5807,3.5807,0,0,0-1.7889-.1858c-.5911.1-.748.31-.8406-.3794-.0691-.5149-.1077-1.0333-.1556-1.55a8.4518,8.4518,0,0,0-.575-2.8463,2.8357,2.8357,0,0,0-.7751-1.0219c-.4607-.3688-.8061-.2388-.7742-.8683.0481-.9476.8549-1.0128,1.59-1.0712a2.1838,2.1838,0,0,0,1.1266-.24c.1534-.1287.0135-.2666.12-.42a3.139,3.139,0,0,1,.7562-.7893,2.3172,2.3172,0,0,1,1.723-.3869A5.7353,5.7353,0,0,0,59.2,36.3c.2833-.0813.493-.5679.7163-.7459a2.6085,2.6085,0,0,1,3.1.1175c.375.2988.4944,1.08.8037,1.2884.1228.0828.753-.0653.916-.0643A2.2152,2.2152,0,0,1,65.86,37.14Zm-10.02-.6c-.8915.0306-1.5548-.8312-2.3068-1.1665-.6669-.2974-.9238-.3392-.9017-1.1932a10.8886,10.8886,0,0,1,2.2171-5.747c.4217-.5514.5433-.6885,1.0694-.1374a8.573,8.573,0,0,1,1.17,1.3638,8.5218,8.5218,0,0,1,1.0551,2.5042,10.0754,10.0754,0,0,1,.241,1.5886c.0163.2165.0267.4337.0327.6507.0129.4653.0925.5563-.2415.7988C57.388,35.7737,56.3565,35.5049,55.84,36.54Zm3.42-2.16c.1794.2243.5277.78-.06.78A1.0846,1.0846,0,0,1,59.26,34.38ZM92.62,23.04a12.5336,12.5336,0,0,0-4.6023-1.16c-.8242-.0437-1.6576.1338-2.47.0919a.9749.9749,0,0,1-.8532-.3495c-.23-.1973-.4447-.412-.68-.6034C83.7139,20.774,82.71,19.993,82.3,20.22c-.5234.2894.58.802.7957.9377.9325.5861,1.8358,1.2721,1.8443,2.4823a14.596,14.596,0,0,0-1.53.0866,6.2788,6.2788,0,0,1-1.59.2134c-.6341-.2006-1.2852-1.1463-1.8163-1.5593-.4935-.3839-1.443-1.0913-2.1107-.9937-1.1023.1611.8347,1.1244,1.1547,1.2641a4.3262,4.3262,0,0,1,1.8164,1.4933c.2489.3269.5258.6636.754,1.0039.3408.5083.5642.728-.09.899a13.6869,13.6869,0,0,1-2.4321.0992c-.5313.032-.5436.1627-.8853-.4a3.9881,3.9881,0,0,0-.6988-1.062,5.1126,5.1126,0,0,0-2.0192-1.05c-.4559-.1283-2.3423-.2424-1.3251.384.6245.3845,1.4429.4414,2.0839.861a3.4726,3.4726,0,0,1,.3071,5.5984c-.4266.2923-1.3792.629-1.8738.2817-.2221-.156-.3816-.8018-.4784-1.1067-.1962-.6184-.1436-.706-.7285-.9454a4.3671,4.3671,0,0,0-2.7863-.4681A9.12,9.12,0,0,0,67.93,29.4332,10.8778,10.8778,0,0,0,63.94,33.9c-.0374-.0539-.3271.3229-.3565.3618-.2234.2961-.1527.3672-.5179.4055-.283.03-.6194-.2095-.88-.2878a5.1319,5.1319,0,0,1-.5256-.12,3.49,3.49,0,0,1,.05-1.0031,8.4918,8.4918,0,0,1,1.4914-3.7034c1.6233-2.53,2.9493-4.9773,5.3827-6.86a17.7132,17.7132,0,0,1,4.1614-2.3723,21.3233,21.3233,0,0,1,2.2891-.78c.7747-.2172,1.534-.5913,2.3207-.7416a17.5514,17.5514,0,0,1,3.0007-.1467,16.5734,16.5734,0,0,1,2.8963.0333c.5266.0892,1.012.2341,1.5586.2814A11.3159,11.3159,0,0,1,87.7,19.8a12.0584,12.0584,0,0,1,2.6755,1.4328c.4492.3045.8942.6168,1.3653.8872C92.2817,22.43,92.62,22.3871,92.62,23.04Zm-1.2-2.34v.24a14.0659,14.0659,0,0,0-4.8958-2.3066c-.5314-.0874-1.3739-.0367-1.7989-.4387a.6353.6353,0,0,1-.2387-.3567c-.0193-.2983.0435-.1012.2021-.2826a5.8434,5.8434,0,0,1,.8393-.7875c.78-.3925,2.5425,1.0143,3.1642,1.4593A10.7657,10.7657,0,0,1,91.42,20.7Zm-6-6c.7026.9371-1.1112,2.56-1.8381,3.0077-.3126.1926-.2166.2225-.63.2537a10.9136,10.9136,0,0,1-1.2459-.1,19.8609,19.8609,0,0,0-2.2142.0242,22.027,22.027,0,0,0-8.5591,2.3413A15.7353,15.7353,0,0,0,67.56,22.5027a28.4307,28.4307,0,0,0-2.9006,3.49,22.754,22.754,0,0,0-2.5909,3.5258A14.6554,14.6554,0,0,0,60.46,34.44c-1.2863-.2429-1.7268-3.1788-1.7933-4.1735a5.32,5.32,0,0,1,.6088-2.68,3.154,3.154,0,0,1,.9886-1.3757c.3531-.256.8241-.4448.9629-.8981a4.1867,4.1867,0,0,0-.0821-1.1714,9.3259,9.3259,0,0,1,.2558-1.6627c.0912-.5226.1742-1.05.3144-1.562A3.7186,3.7186,0,0,1,62.95,19.0733a11.1258,11.1258,0,0,1,4.64-2.69,8.4334,8.4334,0,0,0,2.7169-1.3859c.51-.4387,1.0238-.5911.9374-1.3048a1.926,1.926,0,0,0-.4693-1.1314c-.3521-.389-.6759-.5314-.3195-1.1233a1.712,1.712,0,0,1,.7643-.5791,2.7211,2.7211,0,0,1,2.6645.2356A4.1732,4.1732,0,0,1,74.8,11.52a3.0308,3.0308,0,0,1,.273,1.4669,3.8523,3.8523,0,0,1-.846,2.8956,7.0355,7.0355,0,0,0-.7608.6941c-.2818.39-.56,1.1256.1472.87.8919-.3218,1.3081-1.5738,1.66-2.3391a4.06,4.06,0,0,1,2.0673-2.0941,7.8812,7.8812,0,0,1,1.79-.6377c.1649-.0366.3325-.0695.5-.0917.458-.0609.5818-.1634.7361.2453.3534.9365-.4283,2.2011-.9831,2.8725-.2848.3447-.6066.6555-.9118.9815-.4186.447-.6114.6-.6114,1.1964,1.394-.0652,1.9482-1.7875,3.1854-2.2463A13.0617,13.0617,0,0,1,85.42,14.7ZM64.18,16.74c.0928-.9486.8564-1.1438,1.6414-1.3949.4386-.14,1.182-.3992,1.6586-.12.4587.2686.09.2915-.1425.47a8.4806,8.4806,0,0,1-1.9452.7888C65.1028,16.5967,64.298,17.0935,64.18,16.74Zm3.96-8.82c.9095-.3763,1.918-.0455,2.8406-.3231.5807-.1747,2.0222-1.33,1.3842-1.9391-.26-.2486-.6832-.0811-.8648-.4979a1.3063,1.3063,0,0,1,.188-.9226,1.6273,1.6273,0,0,1,1.792-.54A1.7876,1.7876,0,0,0,75.02,3.68a2.645,2.645,0,0,1,1.1285-.2312,2.1157,2.1157,0,0,1,1.7667,1.0534c.2889.4662.3475,1.5518.6647,1.8156.2075.1726.6579.18.9128.3767a2.1948,2.1948,0,0,1,.6347.836,3.8372,3.8372,0,0,1,.24,2.0791,4.02,4.02,0,0,1-.5313,1.846c-.5947.61-2.0335.3966-2.7672.8356-.2252.1347-.3848.477-.6534.5379-.513.1164-.4037-.3954-.5218-.8508C75.2256,9.4027,70.5391,8.4967,69.58,11.4c-.4435,1.3425,1.8489,2.5117-.1829,3.4366-.6156.28-1.4537-.316-2.17-.38A5.6214,5.6214,0,0,0,64.3,15.12c-.4779-1.7324-1.3538-3.4266.0352-4.9542A10.2662,10.2662,0,0,1,68.14,7.92ZM60.58,11.1c1.5593.3349,2.5876,2.0564,2.9055,3.502A4.4649,4.4649,0,0,1,63.28,17.34a13.4863,13.4863,0,0,1-1.65,2.177c-.2141.2982-.672.8442-.57.0429.0489-.3856.5248-.791.6992-1.149A6.0225,6.0225,0,0,0,62.2484,15.5a6.2415,6.2415,0,0,0-.5447-2.4729C61.4115,12.4269,60.4782,11.71,60.58,11.1Zm-.36,3.66c.3045-1.1238-.4361-1.9819-.48-3.06a3.372,3.372,0,0,1,1.437,1.5374,4.9454,4.9454,0,0,1,.3292,2.8934c-.0593.5164-.2473,2.623-.9861,2.5892a5.9823,5.9823,0,0,1-1.02-1.74C59.4141,16.3422,60.0579,15.3582,60.22,14.76ZM38.14,9.84c.7134-.965,3.8.0223,4.6886.2382a4.5759,4.5759,0,0,1,.9889.2619c.2006.1052.2216.0459.3509.2318a3.7749,3.7749,0,0,1,.2258.96,5.619,5.619,0,0,0,.605,1.5419c.3713.5867,1.1186.9556.81-.05-.4-1.3044-1.1485-2.2763-.7968-3.7206a5.3872,5.3872,0,0,1,1.7162-2.7054c.2128-.1667.34-.4543.6513-.1775.1621.1442.2008.7757.27.99a6.1606,6.1606,0,0,0,1.1453,1.8815A9.843,9.843,0,0,0,52.1,11.6265a20.7494,20.7494,0,0,1,6.002,4.5513,12.0776,12.0776,0,0,1,2.1039,3.1965,4.311,4.311,0,0,1,.46,1.9c-.0126.3064-.0107,2.28-.2357,2.3957-.3208.1646-2.1412-2.077-2.5325-2.4423a23.0421,23.0421,0,0,0-2.7555-2.203A38.2622,38.2622,0,0,0,48.44,15.5533a23.6376,23.6376,0,0,0-3.3474-1.1422,14.1115,14.1115,0,0,0-1.8357-.3611c-.5048-.06-1.1434.1143-1.6118.0286-.7368-.1348-1.6957-1.159-2.24-1.68C38.7852,11.8058,37.7807,10.7988,38.14,9.84ZM31.9,12.96c.6455-1.0752,2.6447-.5143,3.6748-.6723a5.0976,5.0976,0,0,1,2.4393.25c.4359.1523,2.11.9355,1.654,1.48-.32.3814-1.63.3655-2.0824.4224-.7518.0946-1.5175.298-2.2634.3748a3.5793,3.5793,0,0,1-1.7711-.5389c-.3533-.1629-.7025-.3366-1.0608-.4884C31.9251,13.5485,31.9,13.6014,31.9,12.96Zm.24,1.26a5.09,5.09,0,0,1,.724.3927c.126.065.871.2274.896.2673.2857.4553-.8308.7527-1.0568.83a17.546,17.546,0,0,0-4.2847,2.5651c-.2377.1663-.6475.6065-.7586.2829-.0638-.1859.2147-.6243.3038-.778a5.0923,5.0923,0,0,1,1.247-1.3417A22.6181,22.6181,0,0,0,32.14,14.22ZM46.96,26.64A2.6039,2.6039,0,0,0,45.7,27.9c-.626-.1954-.6639-1.6021-.692-2.0989a5.5029,5.5029,0,0,1,.5957-2.8186,8.6214,8.6214,0,0,1,1.7626-2.6283c.156-.1425.908-.64.8536-.9141-.0751-.3778-.8707.0853-1.0294.19a6.7821,6.7821,0,0,0-1.6966,1.9044c-.2076.3052-.4037.618-.5951.9336a1.8887,1.8887,0,0,1-.2675.45c-.26.1864-.7374.0294-1.1-.0186-.807-.1068-2.7586-.1352-3.3511-.76-.5626-.5934.5266-1.7924,1.0173-2.201a9.4253,9.4253,0,0,1,2.2819-1.2854,4.5654,4.5654,0,0,0,1.2047-.5142c.597-.595-.6788-.4726-1.0763-.4062a6.1428,6.1428,0,0,0-2.919,1.5884c-.3805.3343-.5663.9112-.9482,1.1922a2.4069,2.4069,0,0,1-.8317.2865,17.3187,17.3187,0,0,1-2.3881.36c-.3817.0383-1.9149.3879-2.2325.14-.5973-.4665.3389-1.8957.6716-2.2921a6.5282,6.5282,0,0,1,2.1711-1.713c.3815-.1729,1.2357-.1232,1.4893-.3752.4306-.4279-.3264-.5577-.69-.5468a5.0216,5.0216,0,0,0-2.8068,1.464,2.7385,2.7385,0,0,1-1.8309.7148,10.8332,10.8332,0,0,0-2.3595.5543,10.5391,10.5391,0,0,0-2.13.781A5.2449,5.2449,0,0,1,26.86,20.76c0-.6765,1.0565-1.5946,1.6055-1.9952a18.95,18.95,0,0,1,2.0367-1.2408A16.5274,16.5274,0,0,1,34.863,15.56a26.0875,26.0875,0,0,1,8.8163-.4144c5.4711.7876,10.0878,3.4431,14.1647,7.0673.7224.6422,2.1289,1.7483,2.2536,2.7966.0875.735-.8559,1.1025-1.2253,1.681A14.4952,14.4952,0,0,0,57.82,29.46c-.7418-.6677-1.2156-1.5731-1.9393-2.257a6.997,6.997,0,0,0-2.85-1.5393A7.4691,7.4691,0,0,0,46.96,26.64Zm6.78.18c.39.223.8067.311.8086.7554a1.8191,1.8191,0,0,1-.4837.9487A8.2685,8.2685,0,0,0,52.897,30.241a12.5224,12.5224,0,0,0-.8141,2.58,12.8885,12.8885,0,0,0-.2078,1.3467c-.0222.2242-.0383.4484-.0469.6736-.0158.4166.1186.4754-.3683.5587-.5254.09-.4591-.3193-.4953-.79a6.2057,6.2057,0,0,1,.0266-1.1551,9.8834,9.8834,0,0,1,.6384-2.4414A40.6614,40.6614,0,0,1,53.74,26.82Zm-2.76,9.54a2.8922,2.8922,0,0,1,3.0422-.0631c.3767.2228.8925.5447.55.89-.2385.24-.81.3183-1.1084.5386a3.1406,3.1406,0,0,0-.707.7616c-.38.5481-.5193.5143-.84-.1543a2.4533,2.4533,0,0,0-.6321-1.0258C50.9649,37.0465,50.3988,36.8278,50.98,36.36Zm-6.18.54a8.64,8.64,0,0,1,1.26.186c.5131.1111.4151.1476.6348.5585.0814.1522.2277.8085.5057.7556.3285-.0625.5488-.8674.9748-1.0324a2.204,2.204,0,0,1,1.61.0954,2.3128,2.3128,0,0,1,1.22.9866c.1581.388-.3531,1.6081-.1449,1.81.1543.15.9562-.2972,1.2039-.331a1.63,1.63,0,0,1,.965.14c1.3363.6589,1.5862,2.7838,1.6878,4.0768.0584.7436.2383,1.8708-.2567,2.4146a2.0563,2.0563,0,0,1-1.66.582c-.742.0474-1.3614.918-2,.918a9.2827,9.2827,0,0,0-1.62-4.4709A4.4768,4.4768,0,0,0,47.629,42.23c-.17-.08-.6166-.3-.7923-.22-.369.1681.1373.5684.352.8169a11.455,11.455,0,0,1,2.2359,3.1529,10.3684,10.3684,0,0,1,.5655,1.6438,1.4876,1.4876,0,0,1,.0337.855c-.19.3963-.7892.3715-1.2039.4521a4.1519,4.1519,0,0,0-2.1274.883c-.3143.2632-1.2563,1.4837-1.7127,1.427-.4221-.0525-1.092-1.5392-1.3367-1.887a4.7984,4.7984,0,0,0-1.8208-1.5924c-1.0415-.5259-2.6014-1.3385-1.9081-2.7686.2241-.4622.84-.7655,1.0222-1.2055.1939-.4695-.3385-1.1916-.3417-1.8016a1.6324,1.6324,0,0,1,.6906-1.4093c.46-.3228,1.4642-.26,1.6466-.645.1173-.2475-.0107-.8231.0536-1.1224a2.1574,2.1574,0,0,1,.3118-.7668A4.0986,4.0986,0,0,1,44.8,36.9ZM36.16,25.8c.5094,1.294-.38,2.7954-.0907,4.155.06.2808.3415.8437.2707,1.125-.0477.19-.39.4691-.497.6345-.3.4622-1.0076,1.7935-.343,2.1255a11.2326,11.2326,0,0,1,1.1039-1.9321c.3509-.4643,1.2111-1.4638,1.8926-1.3448.5632.0984.996,1.354,1.1771,1.8611a6.6006,6.6006,0,0,1,.3362,1.3444c.0966.7267-.0325.7473-.5255,1.215-.6165.5849-1.0783,1.3091-1.6745,1.9125-.25.2529-.8551.5378-.5955.9805.1825.3112.4522.1618.6335.0129.4368-.3589.7777-1.0767,1.2083-1.4931a10.0712,10.0712,0,0,1,1.9175-1.4933c.6128-.3543.8591-.4177,1.2448.2364a3.7575,3.7575,0,0,1,.54,2.0342,1.848,1.848,0,0,1-.36.8551c-.2007.3813-.1468.7705-.3128,1.1512-.1885.4322-.4.3544-.8275.6335-.3813.2491-.6747.5866-1.0786.8069a5.63,5.63,0,0,1-2.035.7111,13.2141,13.2141,0,0,0-1.3613-.0589c-.6032.1078-.87.5287-1.2957.0936-.9951-1.0165-1.3157-3.1073-1.4936-4.4434a17.6519,17.6519,0,0,1,.1682-5.6664A15.4694,15.4694,0,0,1,34.9,28.74C35.2631,27.7768,35.4053,26.5592,36.16,25.8Zm-1.2.42c.1889.56-.4356,1.6841-.6253,2.1805a20.9728,20.9728,0,0,0-.937,2.6171,17.0357,17.0357,0,0,0-.2441,4.728c.0377.7972.0885,1.5939.112,2.3916.0068.2321.1234.6958-.1056.8027-.1319.0616-.97-.47-1.0975-.53-.3562-.1681-1.448-.7913-1.8425-.6095-.4628.2133-.0574,1.7311-.6124.8091a6.9439,6.9439,0,0,1-.5931-4.4762,5.8772,5.8772,0,0,1,.3767-1.1757c.1665-.3776.2036-.6531.5957-.6016.5113.0671.9586.727,1.23,1.1067a4.8,4.8,0,0,0,.95,1.2382c.7054.4868.38-.4212.1932-.8619a5.4374,5.4374,0,0,0-.5055-.7709,1.4523,1.4523,0,0,1-.1233-1.1024,7.4757,7.4757,0,0,1,.6894-2.18A17.5088,17.5088,0,0,1,34.96,26.22Zm-5.22,4.5c-.1426-.3262-.72-.7723-.6361-1.1714.11-.5254,1.1172-.455,1.4761-.4186.7834.08,1.5333.3588,1.0053,1.24-.2206.368-.0289.2929-.5013.3983A6.02,6.02,0,0,1,29.74,30.72Zm1.44.72c-.05.5035-.3173,1.17-.865.4736C29.6867,31.115,30.7346,31.2918,31.18,31.44Zm-2.22-4.32a3.7458,3.7458,0,0,1,1.4126-.2413,7.4088,7.4088,0,0,1,1.334.5908c.52.2179,1.09.1694.8479.86-.1008.2878-.3195.5773-.5634.6179-.5828.0969-1.3235-.4351-1.9607-.4054-.4454.0207-.88.3255-1.1315-.0415C28.6574,28.1491,28.8381,27.4761,28.96,27.12ZM15.58,30.48a2.8135,2.8135,0,0,1-.0783-1.6918A2.6834,2.6834,0,0,1,15.77,28.04c.13-.224.4806-.4072.574-.5879.2847-.5507-1.4206-3.426.09-3.3836.6341.0178,1.474.7764,2.0122,1.0794.3523.1984.5679.2576.7128.6123a8.2131,8.2131,0,0,1,.2123,1.108,3.5879,3.5879,0,0,0,1.7093,2.6109c.396.1878,1.3423.4793,1.7287.2209.3346-.2238.3978-.9577.37-1.3264a3.216,3.216,0,0,0-1.3733-2.1354c-1.578-1.2755-3.5557-1.8407-5.2566-2.9032a2.4841,2.4841,0,0,1-1.2144-2.6458,2.2983,2.2983,0,0,1,.8145-1.4742c.5971-.37,1.0713.2828,1.4835.7379a3.5928,3.5928,0,0,0,1.5186,1.1715c.8491.2969,1.7577.3461,2.6073.6555a13.1632,13.1632,0,0,1,3.87,2.13c.9769.8072,2.4058,2.2166,2.383,3.5714-.0107.6376-.439,1.3744-.1576,1.9963.2115.4673.76.6713,1.1032,1.0231.5823.5969.4259.958.0924,1.6295a11.4784,11.4784,0,0,0-.8353,2.1491c-.2293.8617-.1155,1.3235-1.1371,1.0048a2.4979,2.4979,0,0,1-1.4821-1.29c-.5221-1.057-.9188.0047-.3477.7039.4461.5462,1.2906.7851.373,1.3626a4.5666,4.5666,0,0,1-4.1719-.0633A4.5108,4.5108,0,0,1,19.8481,34.86c-.5082-.6066-.4058-1.5544-.8653-2.1132-.3492-.4247-.2794.0338-.7357.05a2.5869,2.5869,0,0,1-1.083-.5219A4.0742,4.0742,0,0,1,15.58,30.48Zm4.32-4.62a3.06,3.06,0,0,1,2.1059,1.3807c.3624.5135.964,1.6415-.0339,1.749C20.5665,29.1413,19.3928,27.0449,19.9,25.86Zm7.62,10.56c-.1383-.3087-.0735-.5143.2537-.3971C28.2741,36.2021,28.0349,36.5671,27.52,36.42Zm.42.9v.3a11.0876,11.0876,0,0,1-1.1091-.3258c-.4368-.12-1.3843-.0214-1.0359-.6192C26.2906,35.8246,27.4609,37.02,27.94,37.32Zm-3,.18c0,.2074.1351,1.3158,0,1.44-.1429.1314-.7064-.027-.8657-.074a3.7778,3.7778,0,0,1-1.3038-.8026c-.3974-.3335-.7515-.7191-1.1621-1.0372-.32-.2481-1.1684-.4807-1.1684-.7861a8.3559,8.3559,0,0,0,2.4009.8917c.2692.0068.5065-.1324.7791-.1117A5.988,5.988,0,0,1,24.94,37.5ZM14.68,35.64c-.224-1.1186,2.8612-1.7188,3.6009-1.5566.3788.0831.3308.0153.606.2394a3.9451,3.9451,0,0,1,.54.7011c.2193.2967.5278,1.0632.8335,1.2161-.9248.0193-1.7945-.7372-2.7293-.8541A21.5718,21.5718,0,0,0,14.68,35.64Zm1.14.78c-.4444-.8895,2.6243-.1528,3.0484-.0094.7734.2615,2.6861.8638,2.7116,1.8694a5.9718,5.9718,0,0,1-1.74,0c-.3909-.1686-.7286-.7182-1.1367-.9467A7.1382,7.1382,0,0,0,15.82,36.42Zm1.98,3.24a9.507,9.507,0,0,1,6.0941-.389,3.595,3.595,0,0,1,1.4011.64,4.3185,4.3185,0,0,1,.5807,1.02c.2231.3673.7057.897.7487.1833a2.0976,2.0976,0,0,0-.4051-1.0475c-.3169-.5634-1.1272-1.8914-.1545-2.2376.7328-.2608,2.0881.4376,2.7113.8752a2.802,2.802,0,0,1,1.2816,2.2585c.08.7268.1113,1.6045,1.0021,1.7563.11-.8874-1.5655-5.2741.9207-3.5639a18.1951,18.1951,0,0,1,2.6361,2.4551c.2735.2862.3644.24.2834.6642a2.0535,2.0535,0,0,1-.2683.54,2.2311,2.2311,0,0,0-.1278,1.576c.1781,1.2532-.97,1.6867-1.8919,2.1753-.1941.1029-.26.1-.3822.248-.0609.0739-.0123.354-.09.405-.2581.17-.3-.2737-.4086-.4562a5.9762,5.9762,0,0,0-1.2234-1.2519,18.68,18.68,0,0,0-6.0219-3.8769,18.9246,18.9246,0,0,0-4.2937-1.38c-1.4689-.18-2.914.5023-4.3724.2445C16.0709,39.7092,17.1865,39.9089,17.8,39.66Zm4.5,12.06c-.05-2.0273,1.98-2.418,3.5746-2.6116.3492-.0424.8823.0594.8277-.3674-.0371-.29-.4779-.5185-.7122-.5789-.9434-.2431-1.71.6257-2.5631.8138a4.4156,4.4156,0,0,1-2.3419-.42c-.5047-.1912-1.8622-.6283-2.1288-1.17-.2858-.5809.89-1.6756,1.3735-2.0821a4.448,4.448,0,0,1,1.4754-.8457c.215-.07,1.8065-.1842,1.2148-.7776-.1531-.1535-1.1706.1452-1.34.1821-.6852.15-.9686-.1623-1.5353-.5475A8.349,8.349,0,0,0,16.5486,41.88c-.283-.05-1.387-.0368-1.1666-.5216.14-.3073.7615-.3259,1.0445-.3405a17.85,17.85,0,0,1,3.4576.0489,19.9679,19.9679,0,0,1,6.4812,2.1352,15.2563,15.2563,0,0,1,2.6789,1.7721c.4669.3922,1.9726,1.5691,1.8659,2.2759-.07.4606-.7427.1872-1.2187.257a3.5887,3.5887,0,0,0-1.7254.7509,2.8582,2.8582,0,0,0-1.0153,3.2476A2.1383,2.1383,0,0,1,27.1,52.32c-.058.217-.4093.425-.5051.6621-.2874.7111-.1827.8319-1.0395.5227C24.3806,53.0808,23.506,52.0692,22.3,51.72Zm3.24,4.98c.3273-.3139.3954-1.1192.7614-1.332.3274-.19.7862.2173.965.5571.3743.711.18,1.5635.63,2.2724a4.3917,4.3917,0,0,0,2.4746,1.5658c.98.3244,1.865.3286,1.769,1.6168a6.5975,6.5975,0,0,0-4.2259.1793A3.9514,3.9514,0,0,0,26.4,62.7137c-.493.509-1.8205.844-2.0914-.01-.2245-.7082.5794-1.9905.121-2.3434-.168-.1293-.3669-.0028-.5566-.1882a1.3856,1.3856,0,0,1-.1885-.3871,4.2031,4.2031,0,0,1-.3022-.9855C23.1417,57.3246,24.11,56.5526,25.54,56.7ZM14.38,57.84a7.1483,7.1483,0,0,1,3.444-.9495,2.6261,2.6261,0,0,1,1.536.2295c.25.1795.3172.5.4851.7364a3.4352,3.4352,0,0,0,.8049.7636c.1892.1441,1.1047.805,1.0794.1286-.0057-.1535-.4191-.5471-.51-.6609a14.8282,14.8282,0,0,1-1.4784-1.8085c-.6537-1.18,1.2685-1.2692,2.0958-1.1883.6072.0594,1.2091.156,1.8077.273.3636.0711,1.466.1439.962.7054-.2358.2626-.9465.4269-1.2533.68a2.8713,2.8713,0,0,0-.8618,1.1111,2.2212,2.2212,0,0,0-.0562,1.4977c.1686.5382.6368.9077.7046,1.4821-.3709.1285-.824-.16-1.19-.2114a7.0212,7.0212,0,0,0-1.3337-.0231A8.5165,8.5165,0,0,0,18.16,61.02c-.0365-.4387.0177-.5625-.276-.7735a2.8259,2.8259,0,0,0-.6767-.1527,9.2167,9.2167,0,0,1-1.3439-.373A2.0181,2.0181,0,0,1,14.38,57.84Zm-.36,2.88a7.2077,7.2077,0,0,1,1.3235-.2984,2.9445,2.9445,0,0,1,1.5018.3214c.6817.2853.3222.3847-.2157.5709-.5869.2031-1.1862.3679-1.78.5485a11.34,11.34,0,0,0-3.065,1.3585c-1.0059.67-1.9325,1.4589-2.9844,2.059C8.8405,63.6059,12.603,61.233,14.02,60.72Zm5.64,8.88a2.0037,2.0037,0,0,1-.96.3,4.002,4.002,0,0,1,.8887-2.7753c.4962-.5559,1.1508-.943,1.6376-1.51.3493-.4068.6879-.9656-.1452-.7355a3.4875,3.4875,0,0,0-1.4.8641,5.6328,5.6328,0,0,0-1.1006,1.42,1.254,1.254,0,0,1-1.1371.8191c-.6549.11-2.7415.205-3.08-.34-.3357-.54.1976-1.7429.59-2.1151.5568-.5281,1.2779-.9437,1.8868-1.4132.2606-.201,1.1915-.7089,1.26-1.0544a2.8713,2.8713,0,0,0-2.3057.7968,7.3786,7.3786,0,0,0-.9208.8582c-.35.3856-.327.4149-.8446.3552A8.1477,8.1477,0,0,0,9.46,66.12c-.189-.5663.4724-.7715.9388-1.0781q.6782-.4457,1.375-.8622a26.482,26.482,0,0,1,2.9636-1.5309,7.4439,7.4439,0,0,1,2.9735-.8858,25.0207,25.0207,0,0,0,3.0131-.3011c.5461-.0516,2.427-.27,2.836.218a6.0153,6.0153,0,0,1,.18,1.74c-.1447.2879-.8411.6218-1.094.8609A2.9057,2.9057,0,0,0,21.82,65.4c-.0742.2372-.0247.5172-.08.76-.1154.5066-.1633.4759-.58.8A4.797,4.797,0,0,0,19.66,69.6Zm2.1,2.1a2.6737,2.6737,0,0,1-1.1428-1.2353A3.8921,3.8921,0,0,1,20.8,68.6114a2.0429,2.0429,0,0,1,.6666-.974c.4956-.3963.84-.276.8756-.9649a2.9173,2.9173,0,0,1,1.6029-2.4942A1.8112,1.8112,0,0,1,25.3,63.9c.71.1651.8958.5139,1.4262-.1568A4.1373,4.1373,0,0,1,30.045,61.926a9.5405,9.5405,0,0,1,2.9177.549c1.51.49,3.7474,1.5117,3.7917,3.3836a2.61,2.61,0,0,1-.2907,1.1961,4.1327,4.1327,0,0,1-.4488.7014c-.3064.4-.327.5047-.7754.3461-1.2946-.458-2.3044-1.23-3.754-1.1925-.5288.0137-4.1957,1.075-3.6654,1.67.3091.3469,2.4579-.626,2.9382-.7152a6.1216,6.1216,0,0,1,3.7789.6265c1.32.7361.3081,2.012.483,3.1487.0937.6087.4277,1.1529.4665,1.7764.0448.7184-.2611.4622-.9321.4383A4.632,4.632,0,0,0,30.9,74.9222c-.69.74-2.3435,2.6154-3.537,1.7368-.3008-.2214-.3417-.7019-.4676-1.0233A2.4292,2.4292,0,0,0,26.4,74.84c-.34-.3852-.4144-.3782-.8865-.3714-.84.0121-1.7279.2718-2.16-.6446a6.9694,6.9694,0,0,1-.33-1.2362,2.1394,2.1394,0,0,0-.2074-.7181C22.5218,71.542,22.1543,71.8544,21.76,71.7Zm3.18,11.28a3.2308,3.2308,0,0,0-.3146-1.0986c-.1865-.2286-.4513-.1542-.7851-.16a3.0084,3.0084,0,0,1-1.4273-.2295,2.06,2.06,0,0,1-.6608-2.7124,1.2047,1.2047,0,0,1,.6181-.5006c.1881-.078.7111-.0774.83-.2191.2168-.259-.1484-.9714-.2379-1.3226a1.725,1.725,0,0,1-.0083-.9664,2.0418,2.0418,0,0,1,.1757-.5076c.2468-.3605-.0978-.2838.4457-.2076.3847.0539.735.332,1.1322.3874.4775.0666.7833-.1749,1.1867.1144a3.2537,3.2537,0,0,1,.606.8458c.4552.6691.9855,1.2491,1.87,1.1054a6.23,6.23,0,0,0,1.4686-.6235c.5687-.2539-.0289-.1135.2355-.1786.0774-.0191.248.0448.3173.0381.2825-.0272.5829.0265.8687.0128.2913-.0139,1.0651-.1742.82.4625-.1065.2767-1.6855.8321-1.9876,1.0242a4.5063,4.5063,0,0,0-1.6387,1.59c-.2729.5292-.2542,1.1857-.5525,1.7017-.247.4273-.788.6535-1.1523,1.0212A1.6882,1.6882,0,0,1,24.94,82.98ZM13.42,103.32c-.86-.2146,1.0013-3.0729,1.1656-3.6273a6.8223,6.8223,0,0,1,2.441-3.3645c.5363-.4443,1.1189-.8116,1.6735-1.2282.4911-.369.8313-.88,1.3032-1.2651.6181-.5049.5691-.1524,1.1889-.0332.179.0344,1.2392.0117,1.3479-.2018.2553-.5015-1.32-.4034-1.5256-.421A4.0289,4.0289,0,0,1,19.18,92.46c-.589-.72,1.7856-1.5075,2.2491-1.6752.9565-.3461,2.2082-.722,3.1408-.1388.4016.2511.7044.642,1.1066.8972A2.2885,2.2885,0,0,0,27.22,91.8c-.23-.9232-1.4-1.2168-2.1533-1.5836-.5962-.29-1.9319-1.1846-1.5615-2.0671.1469-.35,1.1311-.4619,1.5289-.587.5919-.186,1.1276-.7084,1.2565.118.1869,1.1988.07,2.3526.9974,3.3133a3.0667,3.0667,0,0,0,2.6445.6536c.5-.0513.5617-.176.8275.2427.1913.3014.2567.4462-.0169.6554-.3873.2962-1.325.0736-1.7718.0988a13.1377,13.1377,0,0,0-4.1128.8864,31.5932,31.5932,0,0,0-4.6911,2.2825,16.7712,16.7712,0,0,0-3.7833,3.4481c-.5624.6736-1.0891,1.3758-1.5972,2.091A7.7571,7.7571,0,0,0,13.42,103.32Zm21.84-3.12c-1.3827.7707-2.4945,1.9186-3.8093,2.7871-.5735.3789-2.5294,1.6024-3.1508.8129-.3311-.4206.1187-1.6362.2638-2.1335a10.166,10.166,0,0,1,.8371-2.0321C29.668,99.1465,31.39,97.4507,31.06,96.9c-.46-.7683-1.8041,1.5485-1.9722,1.8887-.4532.9172-.7878,2.0373-1.7633,2.524a6.7325,6.7325,0,0,1-1.8083.4763,16.67,16.67,0,0,1-1.8732.4171c-1.2819.0739-.6483-1.4485-.3464-2.1536A8.8118,8.8118,0,0,1,25.3106,97.17c.2081-.1939,1.0391-.6154.7095-.99-.27-.3073-1.6646,1.0908-1.86,1.32-.3359.3939-.4325.9377-.8658,1.2549-.6012.44-1.5074.3148-2.2047.461a14.902,14.902,0,0,0-4.1034,1.7383,8.6271,8.6271,0,0,0-1.5736,1.1134c-.1294.12-.4.546-.5525.5924-.6252.19.146-.7439.24-.8666a20.32,20.32,0,0,1,3.55-3.8228,18.0542,18.0542,0,0,1,3.74-2.6176c.5369-.2249,1.14-.2183,1.681-.4227.5315-.2007.9827-.5619,1.5246-.7623a14.866,14.866,0,0,1,2.117-.5762c.6795-.1416,1.3721.0108,2.0428-.125.5983-.1211,1.0974-.4332,1.4848.2051.2863.4718.3379,1.0121.7416,1.4257.2236.2291.535.3115.6354.564a4.6985,4.6985,0,0,1,.0176,1.0613,4.5723,4.5723,0,0,0,.3424,1.5894,2.3327,2.3327,0,0,0,.9887,1.0866,3.0032,3.0032,0,0,0,.6921.2674C35.1557,99.8,35.26,99.6662,35.26,100.2Zm5.76-1.68c-.36,1.0474-1.72.59-2.4353.27-.4162-.1859-.74-.5225-1.171-.4252-.5845.1321-.9337.7437-1.5767.7994A2.6177,2.6177,0,0,1,33.3614,97.42c-.175-.8017.516-2.1728-.1052-2.675-.4131-.3339-1.07-.3666-1.3853-.8475a.9939.9939,0,0,1-.16-.73c.0761-.4666-.0336-.36.3529-.402a.2662.2662,0,0,1,.1406.1163q.1695.276.487.0219a4.8453,4.8453,0,0,0,1.302-.336c.2552-.112.5673-.5639.846-.588.1876-.0162.6522.3218.8717.3783,2.4068.62,3.187-2.5983,5.1883-2.5983-.0453.8749-.5938,1.6116-.7,2.4767-.1212.99.5177,1.4709.6322,2.3443.092.7016-.4688,1.2558-.3121,2.0091C40.6049,96.9964,41.3246,98.1525,41.02,98.52Zm10.32,3.12a2.137,2.137,0,0,1-3.0271-.0482c-.0824-.0977-.2937-.7134-.333-.7318-.2106-.0989-.5106.1751-.6473.29a2.7384,2.7384,0,0,1-1.6739.9284,3.0206,3.0206,0,0,1-2.083-.64c-.5468-.52-.3613-1.4826-.2568-2.18.1646-1.0976-.7047-.63-1.459-1.1579a1.8963,1.8963,0,0,1-.6655-1.34,2.7818,2.7818,0,0,1,.2833-1.5761c.167-.392.2962-.3559.1792-.8821a9.1822,9.1822,0,0,0-.3781-1.0967,3.7915,3.7915,0,0,1,.7576-3.6811c.7608-1.1029,2.0546-2.0584,3.4325-1.6159,1.4707.4723,2.7182,1.6479,4.311,1.7316-.0392.6806-.45.9738-.8974,1.4062A4.2255,4.2255,0,0,0,47.87,92.7a6.2954,6.2954,0,0,0-.4279,2.3757c.0151.4021.1149.9232.4764.3885.1447-.2141.0693-.6032.1157-.8543a9.8289,9.8289,0,0,1,2.0807-3.9989,2.0411,2.0411,0,0,1,1.5793-.9252c.6681.01,1.1069.4687,1.7.8031.3034.1709.682.2762.9669.4653.41.272.3806.2189.2782.731a13.4113,13.4113,0,0,0-.517,1.9778c-.0748,1.5177,1.571,3.0563,1.1535,4.5255a3.1952,3.1952,0,0,1-.3656.636c-.152.2836-.174.7148-.33.9557-.3228.4977-1.1814.5556-1.7042.5408A4.545,4.545,0,0,0,52.06,100.2c-.0817.0388-.1564.3362-.2047.4065A8.5707,8.5707,0,0,0,51.34,101.64Zm11.64,6.96a17.7082,17.7082,0,0,1-.9673,9.9345c-.1211.3044-.8621,3.6381-1.4326,3.4455-.2387-.0805.82-4.4639.8624-5.0275a43.1069,43.1069,0,0,0,.3267-4.8376c-.0685-1.7491-.4726-3.463-.6364-5.2024-.0739-.7854-.218-1.6305.5573-2.1375.3659-.2393.2062-.2986.5172.0294a1.8012,1.8012,0,0,1,.2911.6709A30.2736,30.2736,0,0,1,62.98,108.6Zm-1.5-5.4c-.307,0-.6556,1.4351-.86,1.7a2.0259,2.0259,0,0,1-1.9706.6969,2.9035,2.9035,0,0,1-1.7089-.9823c-.3562-.4241-.3806-1.2937-.7082-1.5607-.3546-.2889-1.4275.0764-1.9907.0069-.5768-.0712-1.6034-.4877-1.7016-1.1811-.1537-1.0855,1.9475-1.1486,2.5169-1.6395s.42-1.28.8018-1.894c.5669-.9122,1.2933-1.7174,1.8451-2.6426a6.4807,6.4807,0,0,0,.88-2.6306c.0533-.4234.0881-2.5093.7516-2.2934.6133.2.4062,2.5207.4411,3.0756A5.5371,5.5371,0,0,0,59.98,95.28a13.5841,13.5841,0,0,0,1.5112,2.2843c.4763.8323.3192,1.8672.8484,2.7392.49.8071,1.1451,1.0564,1.8088,1.6341.3511.3056.2243.0032.2563.3772a1.0386,1.0386,0,0,1-.205.5812,1.2416,1.2416,0,0,1-.74.4652A4.1766,4.1766,0,0,1,61.48,103.2Zm3.78,4.38c-.4689-.2545-.6507-1.9218-.7775-2.3889a5.19,5.19,0,0,1-.3025-.971,1.9682,1.9682,0,0,1,.8361-1.3481C66.1775,102.4719,65.3616,106.9913,65.26,107.58Zm2.58-1.02a3.1666,3.1666,0,0,1,.1742-1.8666c.09-.4122.0778-.5662.3572-.8175a8.4161,8.4161,0,0,1,.7255-.4352c.3418-.2451.8518-1.0728,1.263-.9607.4466.1217.2317.3357.1425.5832a8.4749,8.4749,0,0,1-1.3807,1.927A16.4807,16.4807,0,0,1,67.84,106.56Zm8.22-7.92c-.3585.3169-.9724-.1777-1.1855.2807-.1518.3264.1057,1.1871.0653,1.5751a2.5056,2.5056,0,0,1-1.9861,2.0636,2.2358,2.2358,0,0,1-1.3386-.0038c-.6311-.2325-.6807-.671-1.02-1.16-.4671-.6733-.8319.109-1.1479.648a2.2523,2.2523,0,0,1-1.5536,1.34,1.646,1.646,0,0,1-1.4464-.5324,1.8221,1.8221,0,0,1-.4137-.7875c-.0211-.085-.0284-.4526-.0534-.4832-.0985-.1205-.6953-.1242-.84-.15a2.4224,2.4224,0,0,1-1.7164-.9274,4.0465,4.0465,0,0,1-.9236-1.989c-.2416-1.65,1.1295-2.81,1.0666-4.402a17.964,17.964,0,0,0-.64-2.4163c-.0848-.4664-.1063-.4088.23-.6042a7.8582,7.8582,0,0,1,1.0334-.34,5.91,5.91,0,0,1,2.0618-.6622c.6592.02,1.1426.8708,1.583,1.3182A5.0516,5.0516,0,0,1,69.21,93.5347c.19.6643.1809,1.6406.85,2.0453a4.7651,4.7651,0,0,0-.496-3.3859,4.4281,4.4281,0,0,0-.803-1.1929c-.3794-.3789-.936-.5169-.4381-1.1029.379-.446,1.0769-.384,1.5924-.38a5.5113,5.5113,0,0,0,1.9782-.254c1.2068-.424,1.6088-.575,2.6782.1109A5.4666,5.4666,0,0,1,76.3743,90.85a3.5082,3.5082,0,0,1,.2442,2.6518,2.7155,2.7155,0,0,1-.275.4564c-.2207.3568-.2369.0752-.1746.5625a7.7781,7.7781,0,0,0,.4707,1.3072C76.9727,96.84,77.1514,98.0279,76.06,98.64Zm8.4.6a2.2874,2.2874,0,0,1-1.8013,1.7838,2.831,2.831,0,0,1-1.2857.05c-.4347-.1485-.3923-.3843-.5387-.8469-.0667-.2107-.21-.9412-.4635-1.03-.2586-.0908-.5647.3891-.799.5781-.7174.5785-2.0292.9476-2.4616-.1271-.3337-.8294.1555-1.3465.442-2.0929a3.1747,3.1747,0,0,0-.2545-2.6076c-.4129-1.0569.1777-2.4435.2023-3.5671,1.1641.1911,1.6152,1.786,2.8418,2.1162a7.4,7.4,0,0,0,1.8849-.0688c.4881.0137.4261.1409.8076.4639a2.5922,2.5922,0,0,0,.6159.3978,2.9646,2.9646,0,0,0,.7466.2094c.22.0363,1.0012-.0563,1.1431.0616.3186.2645.1786,1.4287.0129,1.7686-.21.4311-.6625.6377-.9369,1.0089C84.14,97.981,84.6257,98.5187,84.46,99.24ZM95.98,105c.2056,0,.7682,1.1224.9489,1.3424a8.6652,8.6652,0,0,0,1.8634,1.6893c1.3065.8746,2.9267,1.41,4.15.1628.3636-.3707.329-.5331.2378-1.0345-.1641-.9025-.3037-.5552-1.02-.93a1.2315,1.2315,0,0,1-.09-2.0929,1.8482,1.8482,0,0,1,1.7621-.5367,2.993,2.993,0,0,1,1.6166.5881c.5555.51.4294,1.1114.6129,1.762.1289.4571.2377.3751.7165.6087a3.4209,3.4209,0,0,1,.9985.6095,5.1139,5.1139,0,0,1,.5891,3.5907c-.356,1.3082-1.9636,2.233-3.2056,2.4606a6.7755,6.7755,0,0,1-2.2368-.3381c-.8689-.1472-1.6695.3548-2.5466.1882C96.5851,112.35,95.4287,108.3105,95.98,105Zm-5.64-9.72c.7015,1.4456-1.464,2.8979-2.4267,3.62-.3375.2531-1.6153.8376-1.1541,1.3365.2557.2766.6635-.024.9652-.1924A8.3362,8.3362,0,0,0,89.1652,99c.24-.2123.5364-.7432.7828-.8733.7084-.374,2.5453.8411,3.1124,1.3321a6.5885,6.5885,0,0,1,1.8783,2.9974,4.6081,4.6081,0,0,1,.3129,1.6984c-.072.98-.6515.2658-1.1661-.0841A15.943,15.943,0,0,0,84.7,100.98a17.217,17.217,0,0,1,.4873-2.7057c.0947-.3844.0228-.2477.3135-.5435.1362-.1386.2958-.2279.4243-.3836a2.5,2.5,0,0,0,.4726-1.0192,5.5871,5.5871,0,0,0,.1175-1.3015c.0008-.5677.0446-.8117.7-.7972A9.3937,9.3937,0,0,1,90.34,95.28ZM87.7,91.8c-.3967,0-.5969,1.1875-1.0188,1.5a3.0711,3.0711,0,0,1-1.966.55c-.8169-.0647-.9572-.4382-1.3325-1.0588-.3564-.5894-.3937-.8559-1.0493-.5683a2.5721,2.5721,0,0,1-3.5709-.9844c-.7169-1.0686-.5264-2.3264-1.0893-3.4214a1.9377,1.9377,0,0,0-.4443-.5821c-.1884-.1666-.829-.3185-.929-.4753-.2375-.3725.2318-1.4083.4739-1.7133.493-.621,1.353-.8,1.9559-1.2867.2781-.2246.066-.2712.4509-.3654a2.8136,2.8136,0,0,1,1.0139.1057,7.5561,7.5561,0,0,1,2.0687.7353,6.3178,6.3178,0,0,1,1.703,1.2538c.2176.2337.3569.5136.5567.7538.3145.3781.2141.4043.7771.5168.0208-1.8762-2.5992-3.5307-4.1847-3.9231-.3332-.0825-.8823-.0084-.9534-.3378-.064-.2963.4081-.9557.5385-1.2042.257-.49.5349-.9689.7823-1.4636a2.5564,2.5564,0,0,1,.274-.5854c.2373-.232.5945-.1231.9846-.0759,2.2593.2735,4.8127,1.0258,6.0654,3.1054.3653.6064.2075,1.438.8739,1.78a2.9482,2.9482,0,0,1,1.2371.8222c.8211,1.0348.9425,2.1343-.0691,3.015-.392.3413-.3767.4127-.2445.9251a4.642,4.642,0,0,1,.3144,1.3886,2.9784,2.9784,0,0,1-.6843,1.3086C89.567,92.359,88.3708,93.0389,87.7,91.8Zm18.42,3.66c-.1515,0-.6118-.94-.7254-1.1a11.3023,11.3023,0,0,0-1.1011-1.32,8.0384,8.0384,0,0,0-2.6356-1.9108,2.788,2.788,0,0,1-1.2844-.7068c-.3017-.4175-.3241-1.0224-.5954-1.476a6.5618,6.5618,0,0,0-.89-1.1461c-.41-.4294-.6643-.7405-1.2278-.7405a4.7037,4.7037,0,0,0,.9157,1.2484,8.8059,8.8059,0,0,1,.787,1.3145A7.5959,7.5959,0,0,1,100.18,93a12.8687,12.8687,0,0,1-4.2414-.8777c-.7414-.3548-.7966-1.3949-1.1249-2.1151-.1932-.4238-.8552-2.2029-1.4737-2.2272-.7431-.0292.4574,1.7156.6,1.98a7.2127,7.2127,0,0,1,.785,2.706c.0422.4213.3125,1.5117-.305,1.434-.1569-.02-.5179-.488-.6819-.6035a9.4983,9.4983,0,0,0-1.2-.6924c-.2946-.1485-.9709-.3011-1.1677-.5416-.2227-.2721-.1108-.36.01-.7825l.2-.7a2.0375,2.0375,0,0,0,.1368-1.2708,1.548,1.548,0,0,1-.0424-1.3895,9.5493,9.5493,0,0,1,.542-1.5414,3.7932,3.7932,0,0,1,1.2147-1.0643c.2043-.1518.4392-.4236.6624-.4636a2.6728,2.6728,0,0,1,.8937.1641,12.9922,12.9922,0,0,1,2.26.8136,21.4364,21.4364,0,0,1,4.4231,2.7041,11.8865,11.8865,0,0,1,3.0461,3.487C105.035,92.5727,106.7991,94.8317,106.12,95.46ZM97.18,82.44c.3664-.8364-.5075-1.5468-.24-2.34a13.4049,13.4049,0,0,1,1.8.5308c.47.1712,1.2113.28,1.3094.72.1557.699-.686,1.4861-1.188,1.8174a17.2062,17.2062,0,0,0-1.5546.8131c-.9152.7567.8112.3628,1.2073.2036.2065-.0829.4032-.1906.612-.268.4071-.1509.3863-.1313.6884.0382.4651.261.9065.69,1.369.98a7.84,7.84,0,0,1,2.1117,1.9159A11.6341,11.6341,0,0,1,105.94,92.88a4.2088,4.2088,0,0,1-.59-1.1489,9.1226,9.1226,0,0,0-1.09-1.3875,17.0081,17.0081,0,0,0-2.4856-2.67,22.5305,22.5305,0,0,0-2.76-1.9021A8.6209,8.6209,0,0,0,95.5,84.48C95.6771,83.6569,96.84,83.2162,97.18,82.44Zm-.96.66a3.3375,3.3375,0,0,1-1.4213.4453c-.2607-.016-.51-.1829-.77-.1912-.5348-.017-.4645.2322-.6882.7224-.2509.55-.6331,1.4211-1.3359,1.1216-.5022-.214-.6829-.9633-1.065-1.3182-.283-.2628-.7694-.3679-1.02-.66a5.84,5.84,0,0,1-.528-1.248,4.7666,4.7666,0,0,0-1.0491-1.4261,17.019,17.019,0,0,0-1.7495-1.2169c-.7224-.5559.5856-.7916,1.0854-.8247,1.3186-.0873,2.9429.769,4.19.1493.3614-.18.3122-.3984.6326-.6615.299-.2455.0864-.1328.55-.0772a4.1466,4.1466,0,0,0,1.04.0474c.3462-.0429.6552-.26.9762-.3087q.2076-.2852.3545.0358a1.41,1.41,0,0,1,.2212.4141,2.1325,2.1325,0,0,1,.0838.9807c-.0372.3035-.2694.6241-.2906.9021a.8718.8718,0,0,0,.2667.7443A2.7949,2.7949,0,0,1,96.22,83.1Zm-.36-16.32a6.6706,6.6706,0,0,0,.18,1.8,6.3112,6.3112,0,0,0,.6937.21,2.6882,2.6882,0,0,1,1.3552,1.6873,2.4491,2.4491,0,0,1-.6276,2.1429c-.18.2238-.4558.619-.7612.7-.3366.0889-.4368-.1671-.72.12-.4066.4121.1666,1.4093-.0826,1.9894A3.213,3.213,0,0,1,94.2907,77.2c-.6611.21-1.02-.1729-1.5934-.3862-.9792-.3642-1.0935.8232-1.9,1.1422-1.2747.5039-2.7727-.6858-3.6886-1.4252a6.2768,6.2768,0,0,0-1.3825-1.0416c-.4789-.2005-1.8111-.0587-2.1234-.4628-.2305-.2984.0817-1.2016.1486-1.511A11.7526,11.7526,0,0,0,84.16,71.7c.0232-.4815-.2157-1.0131-.144-1.488.071-.47-.0105-.4151.4308-.6843A4.8426,4.8426,0,0,1,85.18,69.15a3.5973,3.5973,0,0,1,2.3247-.1078,23.1393,23.1393,0,0,1,2.7474,1.157c1.2762.5339.3747-.76-.1156-1.1154a6.1856,6.1856,0,0,0-2.1113-.8636,7.7684,7.7684,0,0,0-3.0849,0c.007-.9837.0941-1.9643.1154-2.9475.0124-.5706-.0633-.72.3946-1.0725a2.1147,2.1147,0,0,1,.9765-.4586,5.9853,5.9853,0,0,1,2.06-.3279,5.7278,5.7278,0,0,1,1.7975.5235,2.9089,2.9089,0,0,1,1.2647,1.0753c.1783.31.1168.6093.4826.7266.2772.0889.4171-.0872.65-.1763A2.5948,2.5948,0,0,1,95.86,66.78Zm-1.08-4.14c-.3.6921.6638,1.8412-.4025,2.2051a6.5348,6.5348,0,0,1-1.2975-.042c-.5362.0259-.6586.0608-1.0709-.3063A8.5534,8.5534,0,0,0,90.5763,63.3a3.2473,3.2473,0,0,0-.9078-.3428c-.5726-.1221-.8245.0721-1.0686-.4976a3.1167,3.1167,0,0,0,2.29-2.4943c.0823-.5173.0027-.6762.3164-1.0629.24-.2962.5915-.5387.8491-.83a4.9322,4.9322,0,0,1,.7647-.8975c.3688-.237.4948-.1577.8429.2136a1.4818,1.4818,0,0,1,.4015.8066c.0873.5364-.1682.6353.3775.61.7491-.0345,1.3017-.4768,1.7378.4467A2.51,2.51,0,0,1,94.78,62.64Zm9.96-3.24a6.5114,6.5114,0,0,0-2.0417-.0167c-.6138.091-1.22.5018-1.7991.5713-.4393.0528-.9224-.4481-1.3833-.6938a4.9009,4.9009,0,0,0-1.7611-.7111c-.4689-.0041-.5493.2-.2138.4923a3.9436,3.9436,0,0,0,.753.378,10.9751,10.9751,0,0,1,1.5906.9468,3.8242,3.8242,0,0,1,1.0729,1.1434c.1946.3451.7417,1.51.5425,1.91-.1413.2834-.5482.18-.9428.18H99.4257a11.1293,11.1293,0,0,1-2.4514-.4286c-.7441-.1691-.8126-.1426-.5558-.8047.1632-.4209.3669-.8251.5234-1.249a2.3484,2.3484,0,0,0-.1137-2.4855c-.1477-.1789-.5275-.228-.3681-.5522a4.55,4.55,0,0,1,.7416-.2761,4.357,4.357,0,0,1,1.7424-.0664,21.9107,21.9107,0,0,1,4.2679.5036,9.4087,9.4087,0,0,1,2.05.5807c.3753.1786,1.4349.5431,1.5185.8783A6.5384,6.5384,0,0,1,104.74,59.4ZM92.86,52.26a7.2268,7.2268,0,0,1,3.72-1.56c.6393-.1059,1.7848-.1907,2.032.4526a3.6346,3.6346,0,0,1-.2779,1.9832,2.4662,2.4662,0,0,1-1.8839,1.802c-.4464.12-2.6842,1.1631-1.252,1.2258,1.1873.052,2.0247-1.081,3.1218-1.3236a5.66,5.66,0,0,1,3,.542,16.3861,16.3861,0,0,1,3.0744,1.5349c.3724.24.71.5286,1.0915.7528.53.3115,1.1719.4559,1.3542,1.13a17.7868,17.7868,0,0,0-9.8023-1.5992c-.4273.0535-.8524.125-1.2729.218q-.3119.0687-.62.1532-.3538.2566-.4849-.152c-.3191-.244-.4916-.6458-.825-.9-.1978-.1508-.8748-.3908-.975-.6v-.54l-.4-.44c-.2164-.3681-.1738-.4482-.0328-.8724A5.1991,5.1991,0,0,0,92.86,52.26ZM88.18,51c.5245.2309,1.02-.2287,1.5356-.29a1.8141,1.8141,0,0,1,1.4226.4363,2.5575,2.5575,0,0,1,.7259,1.1814,2.36,2.36,0,0,1,.1407.7125c-.0095.45-.1711.5152-.5248.81-.5055.4213-.6094.4919-.25,1.0423.2393.3664.556.6783.7783,1.057a1.4141,1.4141,0,0,1-.8776,2.1659c-.4508.1038-.7294-.1825-.9916.3347-.2252.4442-.0454,1.1365-.0994,1.6171-.1616,1.4394-1.2555,1.5915-2.4619,1.3243a4.7634,4.7634,0,0,0-3.56.1961c-.1812.0864-.6136.3764-.8175.3327a5.0663,5.0663,0,0,1-.6739-.5756c-.3206-.2937-.2795-.33-.2621-.8165.0142-.3963.0431-.7949.0271-1.1911-.06-1.477-.1022-2.3575,1.3218-3.1033a8.6011,8.6011,0,0,1,1.6766-.6322c.59-.1653,1.1544-.0851,1.33-.7014a4.1269,4.1269,0,0,0-3.2466.5889,7.5759,7.5759,0,0,0-1.2312.9c-.5768.5149-.5826.61-1.0962,0a3.7805,3.7805,0,0,0-.7028-.6514c-.231-.1625-.694-.2426-.8632-.4176-.3348-.3462-.3253-1.1493-.4341-1.5794A2.4065,2.4065,0,0,0,78.82,53.04c-.1366-.2156-.5-.3643-.6-.6-.3206-.7582.4086-1.2432.9-1.656A2.88,2.88,0,0,1,80.8242,50c.4549-.0529,1.07-.22,1.51-.2222.4178-.0023.88.5359,1.2854.4424.0619-.0143.5837-.5559.6742-.6177a4.9715,4.9715,0,0,1,.7971-.4644,2.77,2.77,0,0,1,2.1529.1208C87.82,49.6022,87.9851,50.4128,88.18,51Zm16.2-14.94c-.9717.0649-1.8645.2355-2.8171.3753A11.4247,11.4247,0,0,1,98.8,36.24a14.1407,14.1407,0,0,0-1.65.06,5.63,5.63,0,0,0-1.4667.0533c-.2233.09-.2235-.0133-.3033.2317-.1328.4076.1065.2491.396.333a8.4974,8.4974,0,0,0,1.782.081,14.9657,14.9657,0,0,1,3.5381.5637,1.7008,1.7008,0,0,1,1.05.6085c.2247.23.6841.48.7338.7989.0611.3917-.4953.359-.8576.4136a8.5434,8.5434,0,0,0-1.99.3545c-.2275.0938-.4957.4049-.6928.4619-.4059.1174-1.075-.2676-1.4236-.4369a9.9183,9.9183,0,0,0-3.3326-1.023,9.0985,9.0985,0,0,0-3.6508.0563c-.3035.0935-1.0127.3918-.7281.7133.3412.3853,2.0216-.1415,2.4641-.1643a12.93,12.93,0,0,1,3.5513.5783c.8579.209,2.583.487,3.0381,1.4052.4418.8914-.8313.9131-1.4493,1.18a8.8724,8.8724,0,0,0-2.0143,1.2251,40.3479,40.3479,0,0,1-3.1809,2.6606,7.15,7.15,0,0,1-2.35.7879,14.5886,14.5886,0,0,1-2.772.6112A2.5453,2.5453,0,0,1,85.47,47.081c-.3791-.27-.5733-.1652-.465-.6739.0586-.2754.3223-.4783.4149-.747.2833-.8224-.2755-1.1229-.5256-1.7771-.2823-.7384.4311-1.37.8832-1.9314a18.3765,18.3765,0,0,1,3.2433-3.4178,16.7434,16.7434,0,0,1,7.9189-3.25c1.09-.1283,2.1817-.2872,3.2752-.3853C101.038,34.8244,104.38,34.9726,104.38,36.06Zm8.4-1.8c-1.23,2.0432-4.9055,3.3476-6.9463,1.8245a4.9984,4.9984,0,0,1-1.4193-1.6548c-.3719-.8893.794-.6612,1.3806-.684,1.0149-.0394,3.0222-1.3714,2.065-2.5457a4.24,4.24,0,0,0-1.38-.6c-.34-.0529-.7135.17-1.0338.083-.6124-.1659-.3155-1.11-.0051-1.5062A2.9714,2.9714,0,0,1,107.02,28.26c.5721-.07.8713.3667,1.3081.61.7087.3944,1.3936.02,2.1425.145a3.1175,3.1175,0,0,1,1.6032.9323A3.53,3.53,0,0,1,112.78,34.26Z"/>
</svg>
